ply
format ascii 1.0
comment VCGLIB generated
element vertex 36
property float x
property float y
property float z
property float nx
property float ny
property float nz
property float texture_u
property float texture_v
element face 12
property list uchar int vertex_indices
end_header
-1 -0.15 -0.45 -0.5552843 -0.08329263 -0.2498779 0.000977 0.999023
1 -0.15 -0.45 0.4922068 -0.147662 -0.4429862 0.330976 0.999023
-1 0.15 -0.45 -0.557187 0.04178901 -0.2507341 0.000977 0.669024
1 0.15 -0.45 0.5731478 0.08597215 -0.1289583 0.332357 0.667643
-1 -0.15 0.45 -0.5731478 -0.08597215 0.1289583 0.497642 0.500977
1 -0.15 0.45 0.557187 -0.04178901 0.2507341 0.665690 0.667643
-1 0.15 0.45 -0.4922068 0.147662 0.4429862 0.334310 0.499023
1 0.15 0.45 0.5552843 0.08329263 0.2498779 0.667643 0.999023
1 -0.15 -0.45 0.4922068 -0.147662 -0.4429862 0.332357 0.997642
-1 0.15 -0.45 -0.557187 0.04178901 -0.2507341 0.002358 0.667643
-1 0.15 -0.45 -0.557187 0.04178901 -0.2507341 0.334310 0.664309
-1 -0.15 -0.45 -0.5552843 -0.08329263 -0.2498779 0.334310 0.500977
-1 0.15 -0.45 -0.557187 0.04178901 -0.2507341 0.334310 0.335691
-1 -0.15 0.45 -0.5731478 -0.08597215 0.1289583 0.497642 0.499023
1 -0.15 -0.45 0.4922068 -0.147662 -0.4429862 0.334310 0.669024
-1 -0.15 0.45 -0.5731478 -0.08597215 0.1289583 0.664309 0.999023
-1 -0.15 -0.45 -0.5552843 -0.08329263 -0.2498779 0.334310 0.999023
-1 -0.15 0.45 -0.5731478 -0.08597215 0.1289583 0.665690 0.997642
1 -0.15 -0.45 0.4922068 -0.147662 -0.4429862 0.335691 0.667643
-1 0.15 0.45 -0.4922068 0.147662 0.4429862 0.667643 0.669024
1 -0.15 0.45 0.557187 -0.04178901 0.2507341 0.997642 0.999023
1 -0.15 0.45 0.557187 -0.04178901 0.2507341 0.999023 0.997642
-1 0.15 0.45 -0.4922068 0.147662 0.4429862 0.669024 0.667643
-1 -0.15 0.45 -0.5731478 -0.08597215 0.1289583 0.999023 0.667643
1 0.15 -0.45 0.5731478 0.08597215 -0.1289583 0.000977 0.335691
-1 0.15 0.45 -0.4922068 0.147662 0.4429862 0.330976 0.665690
1 0.15 0.45 0.5552843 0.08329263 0.2498779 0.000977 0.665690
-1 0.15 0.45 -0.4922068 0.147662 0.4429862 0.332357 0.664309
1 0.15 -0.45 0.5731478 0.08597215 -0.1289583 0.002358 0.334310
-1 0.15 -0.45 -0.557187 0.04178901 -0.2507341 0.332357 0.334310
1 -0.15 0.45 0.557187 -0.04178901 0.2507341 0.500977 0.502358
1 0.15 -0.45 0.5731478 0.08597215 -0.1289583 0.664309 0.665690
1 0.15 0.45 0.5552843 0.08329263 0.2498779 0.500977 0.665690
1 0.15 -0.45 0.5731478 0.08597215 -0.1289583 0.335691 0.665690
1 -0.15 0.45 0.557187 -0.04178901 0.2507341 0.499023 0.502358
1 -0.15 -0.45 0.4922068 -0.147662 -0.4429862 0.499023 0.665690
3 2 1 0 
3 8 9 3 
3 4 10 11 
3 12 13 6 
3 14 15 16 
3 17 18 5 
3 19 20 7 
3 21 22 23 
3 24 25 26 
3 27 28 29 
3 30 31 32 
3 33 34 35 
