ply
format ascii 1.0
comment VCGLIB generated
element vertex 36
property float x
property float y
property float z
property float nx
property float ny
property float nz
property float texture_u
property float texture_v
element face 12
property list uchar int vertex_indices
end_header
-1 -0.9 -0.45 -0.7049074 -0.6344167 -0.3172083 0.000977 0.999023
1 -0.9 -0.45 0.4449942 -0.8009895 -0.4004948 0.497642 0.999023
-1 0.9 -0.45 -0.8436491 0.3796421 -0.3796421 0.000977 0.502358
1 0.9 -0.45 0.7331125 0.6598012 -0.1649503 0.499023 0.500977
-1 -0.9 0.45 -0.7331125 -0.6598012 0.1649503 0.000977 0.497642
1 -0.9 0.45 0.8436491 -0.3796421 0.3796421 0.250000 0.248619
-1 0.9 0.45 -0.4449942 0.8009895 0.4004948 0.250000 0.251381
1 0.9 0.45 0.7049074 0.6344167 0.3172083 0.500977 0.999023
1 -0.9 -0.45 0.4449942 -0.8009895 -0.4004948 0.499023 0.997642
-1 0.9 -0.45 -0.8436491 0.3796421 -0.3796421 0.002358 0.500977
-1 0.9 -0.45 -0.8436491 0.3796421 -0.3796421 0.000977 0.002358
-1 -0.9 -0.45 -0.7049074 -0.6344167 -0.3172083 0.248619 0.250000
-1 0.9 -0.45 -0.8436491 0.3796421 -0.3796421 0.497642 0.499023
-1 -0.9 0.45 -0.7331125 -0.6598012 0.1649503 0.002358 0.499023
1 -0.9 -0.45 0.4449942 -0.8009895 -0.4004948 0.499023 0.002358
-1 -0.9 0.45 -0.7331125 -0.6598012 0.1649503 0.499023 0.497642
-1 -0.9 -0.45 -0.7049074 -0.6344167 -0.3172083 0.251381 0.250000
-1 -0.9 0.45 -0.7331125 -0.6598012 0.1649503 0.002358 0.000977
1 -0.9 -0.45 0.4449942 -0.8009895 -0.4004948 0.497642 0.000977
-1 0.9 0.45 -0.4449942 0.8009895 0.4004948 0.500977 0.502358
1 -0.9 0.45 0.8436491 -0.3796421 0.3796421 0.997642 0.999023
1 -0.9 0.45 0.8436491 -0.3796421 0.3796421 0.999023 0.997642
-1 0.9 0.45 -0.4449942 0.8009895 0.4004948 0.502358 0.500977
-1 -0.9 0.45 -0.7331125 -0.6598012 0.1649503 0.999023 0.500977
1 0.9 -0.45 0.7331125 0.6598012 -0.1649503 0.500977 0.497642
-1 0.9 0.45 -0.4449942 0.8009895 0.4004948 0.500977 0.002358
1 0.9 0.45 0.7049074 0.6344167 0.3172083 0.748619 0.250000
-1 0.9 0.45 -0.4449942 0.8009895 0.4004948 0.997642 0.499023
1 0.9 -0.45 0.7331125 0.6598012 -0.1649503 0.502358 0.499023
-1 0.9 -0.45 -0.8436491 0.3796421 -0.3796421 0.750000 0.251381
1 -0.9 0.45 0.8436491 -0.3796421 0.3796421 0.999023 0.002358
1 0.9 -0.45 0.7331125 0.6598012 -0.1649503 0.999023 0.497642
1 0.9 0.45 0.7049074 0.6344167 0.3172083 0.751381 0.250000
1 0.9 -0.45 0.7331125 0.6598012 -0.1649503 0.502358 0.000977
1 -0.9 0.45 0.8436491 -0.3796421 0.3796421 0.997642 0.000977
1 -0.9 -0.45 0.4449942 -0.8009895 -0.4004948 0.750000 0.248619
3 2 1 0 
3 8 9 3 
3 4 10 11 
3 12 13 6 
3 14 15 16 
3 17 18 5 
3 19 20 7 
3 21 22 23 
3 24 25 26 
3 27 28 29 
3 30 31 32 
3 33 34 35 
