ply
format ascii 1.0
comment VCGLIB generated
element vertex 36
property float x
property float y
property float z
property float nx
property float ny
property float nz
property float texture_u
property float texture_v
element face 12
property list uchar int vertex_indices
end_header
-0.25 -1.35 -0.45 -0.5343529 -2.885506 -0.9618351 0.000977 0.999023
0.25 -1.35 -0.45 0.2757054 -2.97762 -0.9925397 0.330976 0.999023
-0.25 1.35 -0.45 -0.6790183 1.833349 -1.222233 0.000977 0.669024
0.25 1.35 -0.45 0.6425295 3.46966 -0.5782765 0.332357 0.667643
-0.25 -1.35 0.45 -0.6425295 -3.46966 0.5782765 0.334310 0.669024
0.25 -1.35 0.45 0.6790183 -1.833349 1.222233 0.999023 0.667643
-0.25 1.35 0.45 -0.2757054 2.97762 0.9925397 0.665690 0.667643
0.25 1.35 0.45 0.5343529 2.885506 0.9618351 0.000977 0.665690
0.25 -1.35 -0.45 0.2757054 -2.97762 -0.9925397 0.332357 0.997642
-0.25 1.35 -0.45 -0.6790183 1.833349 -1.222233 0.002358 0.667643
-0.25 1.35 -0.45 -0.6790183 1.833349 -1.222233 0.664309 0.999023
-0.25 -1.35 -0.45 -0.5343529 -2.885506 -0.9618351 0.334310 0.999023
-0.25 1.35 -0.45 -0.6790183 1.833349 -1.222233 0.665690 0.997642
-0.25 -1.35 0.45 -0.6425295 -3.46966 0.5782765 0.335691 0.667643
0.25 -1.35 -0.45 0.2757054 -2.97762 -0.9925397 0.667643 0.669024
-0.25 -1.35 0.45 -0.6425295 -3.46966 0.5782765 0.997642 0.999023
-0.25 -1.35 -0.45 -0.5343529 -2.885506 -0.9618351 0.667643 0.999023
-0.25 -1.35 0.45 -0.6425295 -3.46966 0.5782765 0.999023 0.997642
0.25 -1.35 -0.45 0.2757054 -2.97762 -0.9925397 0.669024 0.667643
-0.25 1.35 0.45 -0.2757054 2.97762 0.9925397 0.000977 0.335691
0.25 -1.35 0.45 0.6790183 -1.833349 1.222233 0.330976 0.665690
0.25 -1.35 0.45 0.6790183 -1.833349 1.222233 0.332357 0.664309
-0.25 1.35 0.45 -0.2757054 2.97762 0.9925397 0.002358 0.334310
-0.25 -1.35 0.45 -0.6425295 -3.46966 0.5782765 0.332357 0.334310
0.25 1.35 -0.45 0.6425295 3.46966 -0.5782765 0.334310 0.335691
-0.25 1.35 0.45 -0.2757054 2.97762 0.9925397 0.664309 0.665690
0.25 1.35 0.45 0.5343529 2.885506 0.9618351 0.334310 0.665690
-0.25 1.35 0.45 -0.2757054 2.97762 0.9925397 0.665690 0.664309
0.25 1.35 -0.45 0.6425295 3.46966 -0.5782765 0.335691 0.334310
-0.25 1.35 -0.45 -0.6790183 1.833349 -1.222233 0.665690 0.334310
0.25 -1.35 0.45 0.6790183 -1.833349 1.222233 0.667643 0.335691
0.25 1.35 -0.45 0.6425295 3.46966 -0.5782765 0.997642 0.665690
0.25 1.35 0.45 0.5343529 2.885506 0.9618351 0.667643 0.665690
0.25 1.35 -0.45 0.6425295 3.46966 -0.5782765 0.999023 0.664309
0.25 -1.35 0.45 0.6790183 -1.833349 1.222233 0.669024 0.334310
0.25 -1.35 -0.45 0.2757054 -2.97762 -0.9925397 0.999023 0.334310
3 2 1 0 
3 8 9 3 
3 4 10 11 
3 12 13 6 
3 14 15 16 
3 17 18 5 
3 19 20 7 
3 21 22 23 
3 24 25 26 
3 27 28 29 
3 30 31 32 
3 33 34 35 
