ply
format ascii 1.0
comment VCGLIB generated
element vertex 36
property float x
property float y
property float z
property float nx
property float ny
property float nz
property float texture_u
property float texture_v
element face 12
property list uchar int vertex_indices
end_header
-3.375 -0.070875 -0.1125 -0.5773503 -0.5773503 -0.5773503 0.000977 0.999023
3.375 -0.070875 -0.1125 0.5773503 -0.5773504 -0.5773501 0.330976 0.999023
-3.375 0.070875 -0.1125 -0.5773503 0.5773504 -0.5773502 0.000977 0.669024
3.375 0.070875 -0.1125 0.5773503 0.5773503 -0.5773503 0.332357 0.667643
-3.375 -0.070875 0.1125 -0.5773503 -0.5773503 0.5773503 0.415690 0.502358
3.375 -0.070875 0.1125 0.5773503 -0.5773504 0.5773502 0.665690 0.667643
-3.375 0.070875 0.1125 -0.5773503 0.5773504 0.5773501 0.375000 0.540286
3.375 0.070875 0.1125 0.5773503 0.5773503 0.5773503 0.667643 0.999023
3.375 -0.070875 -0.1125 0.5773503 -0.5773504 -0.5773501 0.332357 0.997642
-3.375 0.070875 -0.1125 -0.5773503 0.5773504 -0.5773502 0.002358 0.667643
-3.375 0.070875 -0.1125 -0.5773503 0.5773504 -0.5773502 0.415690 0.580976
-3.375 -0.070875 -0.1125 -0.5773503 -0.5773503 -0.5773503 0.376381 0.541667
-3.375 0.070875 -0.1125 -0.5773503 0.5773504 -0.5773502 0.335691 0.500977
-3.375 -0.070875 0.1125 -0.5773503 -0.5773503 0.5773503 0.414309 0.500977
3.375 -0.070875 -0.1125 0.5773503 -0.5773504 -0.5773501 0.334310 0.669024
-3.375 -0.070875 0.1125 -0.5773503 -0.5773503 0.5773503 0.664309 0.999023
-3.375 -0.070875 -0.1125 -0.5773503 -0.5773503 -0.5773503 0.334310 0.999023
-3.375 -0.070875 0.1125 -0.5773503 -0.5773503 0.5773503 0.665690 0.997642
3.375 -0.070875 -0.1125 0.5773503 -0.5773504 -0.5773501 0.335691 0.667643
-3.375 0.070875 0.1125 -0.5773503 0.5773504 0.5773501 0.667643 0.669024
3.375 -0.070875 0.1125 0.5773503 -0.5773504 0.5773502 0.997642 0.999023
3.375 -0.070875 0.1125 0.5773503 -0.5773504 0.5773502 0.999023 0.997642
-3.375 0.070875 0.1125 -0.5773503 0.5773504 0.5773501 0.669024 0.667643
-3.375 -0.070875 0.1125 -0.5773503 -0.5773503 0.5773503 0.999023 0.667643
3.375 0.070875 -0.1125 0.5773503 0.5773503 -0.5773503 0.000977 0.335691
-3.375 0.070875 0.1125 -0.5773503 0.5773504 0.5773501 0.330976 0.665690
3.375 0.070875 0.1125 0.5773503 0.5773503 0.5773503 0.000977 0.665690
-3.375 0.070875 0.1125 -0.5773503 0.5773504 0.5773501 0.332357 0.664309
3.375 0.070875 -0.1125 0.5773503 0.5773503 -0.5773503 0.002358 0.334310
-3.375 0.070875 -0.1125 -0.5773503 0.5773504 -0.5773502 0.332357 0.334310
3.375 -0.070875 0.1125 0.5773503 -0.5773504 0.5773502 0.419024 0.500977
3.375 0.070875 -0.1125 0.5773503 0.5773503 -0.5773503 0.497642 0.500977
3.375 0.070875 0.1125 0.5773503 0.5773503 0.5773503 0.458333 0.540286
3.375 0.070875 -0.1125 0.5773503 0.5773503 -0.5773503 0.417643 0.580976
3.375 -0.070875 0.1125 0.5773503 -0.5773504 0.5773502 0.417643 0.502358
3.375 -0.070875 -0.1125 0.5773503 -0.5773504 -0.5773501 0.456952 0.541667
3 2 1 0 
3 8 9 3 
3 4 10 11 
3 12 13 6 
3 14 15 16 
3 17 18 5 
3 19 20 7 
3 21 22 23 
3 24 25 26 
3 27 28 29 
3 30 31 32 
3 33 34 35 
