ply
format ascii 1.0
comment VCGLIB generated
comment TextureFile assets/textures/uv3.bmp
element vertex 426
property float x
property float y
property float z
property float nx
property float ny
property float nz
property float texture_u
property float texture_v
element face 516
property list uchar int vertex_indices
end_header
0.447932 1.942708 0.07930297 -0.07842418 0.7527894 0.653573 0.444337 0.794116
-0.590367 2.01329 0.09702802 -0.06145317 0.8010729 0.5954038 0.534860 0.699534
-0.07373999 1.91918 0.102002 0.07932508 0.7953596 0.6009248 0.360698 0.801725
-0.479389 1.262325 0.394227 0.2278888 -0.2210272 0.9482688 0.544227 0.564755
-0.05356199 1.074838 0.323842 -0.2130328 -0.4460743 0.8692726 0.610217 0.528325
0.778619 2.92131 0.08487096 -0.6263657 0.1738101 0.7599052 0.754773 0.851144
1.091968 2.626969 0.08336996 0.1972422 -0.8079919 0.5551979 0.813119 0.794402
1.133881 2.85535 0.08490895 0.5865927 0.578285 0.5670056 0.820624 0.836473
1.018484 2.957954 0.100915 0.4146056 0.8671332 0.2760112 0.801518 0.852654
0.932788 2.968858 0.147976 0.5758671 0.4933506 0.6519067 0.784897 0.856652
1.112925 2.736281 0.141274 0.3525206 -0.042652 0.9348316 0.814939 0.814767
0.805352 3.06871 0.105055 -0.5049129 0.1848471 0.8431457 0.758011 0.868668
0.758066 3.084275 0.06268997 -0.6232772 0.7495292 -0.2230054 0.746764 0.871365
0.938647 3.011222 0.04870896 0.7323936 0.07743008 -0.6764646 0.118553 0.567218
0.938647 3.011222 0.116339 0.7040488 -0.09011877 0.7044104 0.783142 0.866709
0.951717 3.137602 0.11141 -0.01894427 0.3144085 0.9490988 0.773654 0.886955
0.9728 3.227127 0.07488295 0.5244371 0.7961243 0.3019137 0.768657 0.905537
0.99374 3.106668 0.07502796 0.9512442 -0.3029163 -0.05810481 0.786187 0.890000
0.985738 3.09353 0.11141 0.6855854 -0.0181208 0.7277668 0.780725 0.883099
-1.06451 1.924657 0.02217305 0.1205081 0.4051847 0.9062578 0.469195 0.698225
-0.911448 1.388139 0.429208 -0.4843078 -0.02987482 0.8743875 0.478198 0.591904
-1.224335 1.344733 0.1856411 -0.8411347 -0.117275 0.5279574 0.426005 0.590314
-1.088287 2.047146 0.119319 0.3822062 0.1918624 0.9039399 0.188620 0.847877
-1.259521 1.832268 0.05382106 -0.2912318 -0.2667359 0.9187143 0.162278 0.813854
-1.208597 2.085467 0.1054471 -0.3246552 0.4909388 0.8084417 0.174915 0.851898
-1.300084 1.893711 0.03409106 -0.1245529 -0.3108081 0.9422765 0.155077 0.824601
-1.323133 2.020763 0.07654706 -0.5563675 0.1386781 0.8192824 0.153791 0.846617
-1.353105 1.875619 0.04981206 -0.3975873 -0.3560793 0.8456547 0.137798 0.838212
-0.574079 0.886201 0.274556 0.5641443 -0.4846739 0.6684553 0.491667 0.505484
-0.986798 0.9239429 0.205448 -0.8227283 -0.3657754 0.4351167 0.456827 0.516293
-0.698931 0.487134 0.07944703 0.4183096 -0.08075728 -0.9047073 0.499350 0.479151
-0.698931 0.5031489 0.269625 0.4952731 -0.3346218 0.8017062 0.483681 0.454610
-0.897256 0.6602569 0.09113704 -0.7807523 -0.2881928 -0.5544102 0.481343 0.484587
-0.897256 0.6592109 0.291716 -0.8410949 -0.08712798 0.5338241 0.468941 0.470635
-0.849938 0.440896 0.151916 -0.5928977 -0.5470803 -0.5909107 0.515677 0.478584
-0.849938 0.447597 0.231493 -0.5768262 -0.6644026 0.4752271 0.473201 0.429032
-0.932925 0.513337 0.1568071 -0.9384114 -0.1990069 -0.2824542 0.508882 0.543978
-0.932925 0.5128999 0.263755 -0.684873 -0.5189439 0.5115137 0.472732 0.445138
-0.476259 0.08167099 0.07638602 0.09934719 0.4365543 -0.8941759 0.529059 0.364506
-0.476259 0.09033799 0.179315 0.3293611 0.363629 0.8713755 0.529059 0.364506
-0.557987 0.05664499 0.115608 -0.8014647 -0.2438936 -0.5460497 0.496143 0.459989
-0.557987 0.060272 0.158677 -0.7379382 -0.1332136 0.6615902 0.515598 0.359460
-0.496468 -0.046475 0.08426803 -0.2713437 -0.6219906 -0.7345068 0.818348 0.256993
-0.490543 -0.039798 0.187196 -0.1143084 -0.7854646 0.6082588 0.527150 0.342303
-0.576533 -0.017142 0.123489 -0.9450767 -0.1678435 -0.2804615 0.826462 0.259948
-0.574054 -0.014348 0.166558 -0.6402831 -0.4324169 0.6348647 0.513440 0.346628
-0.343008 0.03673 0.09165902 0.7536621 0.1590488 -0.637728 0.805540 0.256008
-0.343008 0.04234499 0.158338 0.6784115 0.6697783 0.3019187 0.798281 0.254056
-0.3561 -0.046285 0.09676501 0.411038 -0.8463905 -0.3386307 0.810018 0.252011
-0.352262 -0.041959 0.163443 0.706469 -0.3607446 0.6089047 0.806039 0.244347
0.187096 1.930944 0.103224 -0.04210487 0.8056613 0.5908782 0.402589 0.799316
0.285463 1.257604 0.394227 0.2587063 -0.3703223 0.8921505 0.664689 0.558352
0.02793301 0.8298609 0.204344 -0.7264037 -0.4637819 0.5071924 0.615106 0.456935
0.299458 0.8321549 0.192439 0.552035 -0.3667766 0.7488206 0.658240 0.455799
0.204605 0.279912 0.087456 0.6662746 -0.05986019 -0.7433 0.638662 0.348615
0.09860601 0.28456 0.08996599 -0.6678709 0.005540381 -0.7442566 0.629351 0.387910
0.09860601 0.277541 0.171991 -0.7150185 -0.02589031 0.698626 0.646191 0.387507
0.204605 0.278668 0.167615 0.5867053 -0.01418109 0.8096764 0.646191 0.387507
0.166616 0.05069499 0.05836299 -0.6645487 -0.4418404 -0.602621 0.625532 0.359168
0.085677 0.114709 0.060874 -0.8805105 -0.3566044 -0.3123052 0.638662 0.348615
0.08108601 0.109148 0.153554 -0.6011487 -0.3297559 0.7279294 0.638662 0.348615
0.165802 0.049709 0.154163 -0.6108209 -0.6034483 0.5125895 0.638662 0.348615
0.260496 0.08161099 0.17366 0.1562448 -0.3963597 0.9047025 0.654189 0.353716
0.260496 0.082854 0.07785998 0.8497999 -0.122133 -0.5127609 0.643619 0.338390
0.198831 -0.009441999 0.155223 -0.4533682 -0.5720651 0.6835194 0.643619 0.338390
0.199645 -0.008456999 0.05942299 -0.1612865 -0.5840015 -0.7955683 0.625532 0.359168
0.362374 -0.012631 0.115209 -0.0775123 -0.9967223 -0.02315989 0.629351 0.387910
-0.749202 0.365369 -0.291799 0 0 0 -0.058265 0.998301
-0.06365099 1.516446 0.391284 -0.01741614 0.2744834 0.9614342 0.612359 0.604207
0.53621 1.52863 0.391284 0.3801805 -0.02328289 0.9246192 0.704361 0.600528
-0.534878 1.657244 0.391284 0.0378161 0.4791504 0.8769178 0.539557 0.631245
0.790954 1.777292 0.205215 0.3021269 0.1392867 0.9430369 0.753629 0.644121
0.820707 2.132558 0.204078 0.09584852 0.0279955 0.9950022 0.761793 0.705777
0.862091 2.645531 0.159311 -0.1591467 -0.2532698 0.9542153 0.775082 0.796039
0.922346 2.80192 0.2016129 -0.2496032 -0.2402667 0.9380673 0.784674 0.823977
1.065943 2.903218 0.1344559 0.6418609 0.6362568 0.4280091 0.808085 0.842919
1.022856 2.85257 0.177623 0.3330567 0.2423497 0.9112299 0.799993 0.833187
-0.956269 1.681812 0.354905 -0.376266 0.4154491 0.8281461 0.474838 0.641182
-1.224137 1.534379 0.1937901 -0.7335928 0.1587233 0.660794 0.441382 0.622138
0.23628 1.613711 0.391284 0.05076522 0.2688566 0.9618415 0.660185 0.616941
-0.795728 1.97495 0.04889803 -0.1635892 0.7189137 0.6755751 0.500747 0.699795
-0.695419 1.325232 0.468952 -0.1098921 -0.004955276 0.9939312 0.509857 0.578454
-0.770769 0.869566 0.406322 -0.05931048 -0.2341232 0.9703961 0.491667 0.505484
-0.798094 0.5811799 0.308176 -0.005614566 -0.2980715 0.954527 0.483681 0.454610
-0.798094 0.5736949 0.08529203 -0.2709095 -0.3160309 -0.9092483 0.513394 0.500061
-0.891431 0.480248 0.247624 -0.4233172 -0.7164927 0.5544735 0.467167 0.435737
-0.891431 0.477116 0.154361 -0.5685554 -0.6443411 -0.5114385 0.505501 0.536645
-0.745573 1.669528 0.373095 -0.02347549 0.4837679 0.8748814 0.506961 0.636654
0.967042 3.052376 0.120864 0.6181854 -0.2918428 0.7298456 0.781561 0.876562
0.889076 3.103156 0.108232 -0.1977994 0.3220507 0.9258287 0.767445 0.878390
0.889076 3.191309 0.06543396 -0.45851 0.867645 -0.1922515 0.759874 0.892987
0.967042 3.052376 0.06543396 0.7961333 -0.4085157 -0.4464154 0.791300 0.879984
1.102446 2.676746 0.130781 0.2268522 -0.4882542 0.8427016 0.814054 0.804657
0.842756 2.977743 0.142372 -0.1357803 0.337604 0.9314437 0.768292 0.855609
0.865265 3.047749 0.03976096 0.03934694 0.3274065 -0.944064 0.111741 0.578503
0.872 3.039966 0.117687 -0.2193604 0.2071678 0.9533953 0.769419 0.867500
1.006332 3.149995 0.06393395 0.9829048 0.009296393 -0.1838799 0.781994 0.895783
0.974419 3.115566 0.11141 0.3444217 0.1541681 0.9260702 0.777877 0.885243
0.972601 2.827245 0.189618 -0.03737665 0.003462082 0.9992953 0.792446 0.828792
0.928059 3.094898 0.04250496 0.2258489 0.05045855 -0.9728547 0.104627 0.567991
0.928059 3.077766 0.114548 -0.03703192 0.1136403 0.9928316 0.774583 0.877015
1.164569 2.635854 0.03758595 0.2690782 -0.891804 0.3637065 0.824628 0.796218
1.221519 2.814476 0.07805095 0.6413444 0.4897064 0.590648 0.836845 0.831845
1.200562 2.720286 0.1062229 0.5419738 -0.06804322 0.8376364 0.829203 0.812310
1.185982 2.673192 0.100977 0.4514171 -0.5582795 0.6960939 0.827432 0.804331
-0.289544 1.178738 0.362847 0.01202453 -0.5186638 0.8548937 0.577222 0.546540
-0.360041 1.971334 0.09924501 0.1609617 0.7841519 0.5993305 0.318655 0.806297
-0.324793 1.594473 0.391284 0.1074828 0.2963013 0.9490274 0.575958 0.617726
-0.336401 1.045941 0.145218 0.2231349 -0.8840799 0.4106256 0.574795 0.601062
0.299458 0.8321549 0.192439 0.9856349 -0.1688726 -0.00242103 0.615106 0.456935
0.204605 0.279912 0.087456 0.9856349 -0.1688726 -0.00242103 0.646191 0.387507
0.204605 0.278668 0.167615 0.985635 -0.1688726 -0.00242103 0.629351 0.387910
0.447932 1.942708 -0.07930302 -0.07842424 0.7527894 -0.653573 0.444337 0.794116
0.624488 1.175416 -2.729724e-08 0.8210652 -0.5708345 -2.131919e-07 0.717450 0.525223
-0.07374 1.958054 3.223278e-09 0.03033895 0.9995396 -1.326158e-09 0.362862 0.836742
-0.590367 2.01329 -0.09702697 -0.06145307 0.8010724 -0.5954045 0.534860 0.699534
-0.07374001 1.91918 -0.102002 0.07932502 0.7953596 -0.6009248 0.360698 0.801725
-0.479389 1.262325 -0.394226 0.227888 -0.2210281 -0.9482688 0.544227 0.564755
-0.05356202 1.074838 -0.323842 -0.2130321 -0.4460746 -0.8692726 0.610217 0.528325
0.993698 2.059326 -4.343592e-08 0.9983012 -0.05826488 -2.654566e-07 0.790874 0.691910
0.447932 1.981581 -1.957973e-08 -0.3639824 0.9314058 1.591018e-08 0.446665 0.832339
-0.577097 2.056112 2.522571e-08 0.04031546 0.9991869 -1.039035e-06 0.280831 0.846777
0.573292 2.089376 -2.505939e-08 -0.8196105 0.5729212 4.851877e-08 0.474004 0.834093
0.937554 1.465208 -4.098179e-08 0.9263048 -0.376775 -5.43723e-08 0.767007 0.600606
0.576655 2.20579 -2.520639e-08 -0.9902145 0.1395536 -5.433507e-07 0.723400 0.720939
0.664232 2.6998 -2.90345e-08 -0.9871634 0.1597136 -3.365605e-07 0.740087 0.809124
0.988886 2.59043 -4.322558e-08 0.7627923 -0.6466435 -3.455249e-07 0.788211 0.777091
0.778619 2.92131 -0.08487104 -0.6263651 0.1738113 -0.7599056 0.754773 0.851144
1.091968 2.626969 -0.08337004 0.1972417 -0.8079922 -0.5551975 0.813119 0.794402
0.744802 2.948414 -3.255633e-08 -0.9791938 0.2029274 -1.543274e-06 0.737969 0.851174
1.133881 2.85535 -0.08490905 0.5865917 0.5782868 -0.5670049 0.820624 0.836473
1.018484 2.957954 -0.100915 0.4146053 0.8671333 -0.2760115 0.801518 0.852654
1.133881 2.85535 -4.956351e-08 0.4861034 0.8739012 -4.246711e-08 0.829935 0.846748
1.018484 2.969821 -4.451935e-08 0.6037796 0.7971513 -1.180101e-07 0.810254 0.863472
1.23717 2.64474 -5.407842e-08 0.4010766 -0.9160445 -8.097102e-07 0.836138 0.798035
1.309156 2.773601 -5.722502e-08 0.8056616 0.5923761 -3.521659e-08 0.853065 0.827217
0.932788 2.987949 -4.077346e-08 0.5242753 0.8515489 -1.68156e-07 0.800324 0.872518
0.932788 2.968858 -0.147975 0.5758684 0.4933521 -0.6519043 0.784897 0.856652
1.112925 2.736281 -0.141274 0.3525205 -0.04265073 -0.9348317 0.814939 0.814767
1.288199 2.704292 -5.630896e-08 0.9728793 -0.2313134 -5.631143e-08 0.843468 0.809854
0.805352 3.06871 -0.105054 -0.5049133 0.1848414 -0.8431467 0.758011 0.868668
0.758066 3.084275 -0.06269003 -0.6232799 0.7495282 0.2230015 0.746764 0.871365
0.938647 3.011222 -0.04870904 0.7323934 0.07743016 0.6764646 0.118553 0.567218
0.938647 3.011222 -0.116338 0.7040499 -0.09012039 -0.7044089 0.783142 0.866709
0.951717 3.137602 -0.111409 -0.01893701 0.314411 -0.9490981 0.773654 0.886955
0.9728 3.227127 -0.07488205 0.5244374 0.7961218 -0.3019193 0.768657 0.905537
0.99374 3.106668 -0.07502805 0.9512443 -0.3029167 0.0581023 0.786187 0.890000
0.985738 3.09353 -0.111409 0.6855869 -0.01811476 -0.7277654 0.780725 0.883099
-1.06451 1.924657 -0.02217295 0.1205086 0.4051847 -0.9062577 0.469195 0.698225
-0.911448 1.388139 -0.429208 -0.4843071 -0.02987467 -0.8743879 0.478198 0.591904
-1.00109 1.975484 4.375904e-08 0.2273331 0.9738171 1.149188e-08 0.211286 0.846688
-1.274346 1.724223 5.570343e-08 -0.9815308 -0.1913044 -4.031412e-08 0.444151 0.658562
-1.224335 1.344733 -0.1856409 -0.8411347 -0.117275 -0.5279573 0.426005 0.590314
-1.088287 2.047146 -0.119319 0.3822061 0.1918624 -0.9039399 0.188620 0.847877
-1.037669 2.052257 4.535795e-08 0.8638325 0.5037791 -2.564217e-08 0.203017 0.858581
-1.259521 1.832268 -0.05382095 -0.2912319 -0.2667359 -0.9187143 0.162278 0.813854
-1.208597 2.085467 -0.1054469 -0.3246553 0.4909388 -0.8084417 0.174915 0.851898
-1.222756 2.111211 5.344836e-08 0.01110933 0.9999382 5.040873e-09 0.173068 0.868443
-1.300084 1.893711 -0.03409094 -0.1245529 -0.3108081 -0.9422765 0.155077 0.824601
-1.323133 2.020763 -0.07654694 -0.5563676 0.1386781 -0.8192824 0.153791 0.846617
-1.355282 2.011667 5.924126e-08 -0.7468868 0.6649513 3.264746e-08 0.143145 0.853427
-1.353105 1.875619 -0.04981194 -0.3975873 -0.3560793 -0.8456547 0.137798 0.838212
-1.384651 1.865744 6.052502e-08 -0.989173 -0.1467543 5.56456e-08 0.132645 0.843873
-0.554739 0.8825449 2.424841e-08 0.7457564 -0.6662188 -2.690086e-07 0.466423 0.537507
-0.574079 0.886201 -0.274555 0.5641448 -0.4846734 -0.6684552 0.491667 0.505484
-0.986798 0.9249889 4.313431e-08 -0.8102756 -0.586049 2.466785e-08 0.469229 0.530244
-0.986798 0.9239429 -0.205448 -0.822728 -0.3657755 -0.4351172 0.456827 0.516293
-0.698931 0.487134 -0.07944697 0.4183096 -0.08075728 0.9047073 0.499350 0.479151
-0.698931 0.5031489 -0.269625 0.4952732 -0.3346215 -0.8017063 0.483681 0.454610
-0.897256 0.6602569 -0.09113696 -0.7807523 -0.2881928 0.5544103 0.481343 0.484587
-0.897256 0.6592109 -0.291716 -0.8410944 -0.08712721 -0.5338249 0.468941 0.470635
-0.849938 0.440896 -0.151916 -0.5928977 -0.5470803 0.5909107 0.515677 0.478584
-0.849938 0.447597 -0.231493 -0.5768262 -0.6644026 -0.475227 0.473201 0.429032
-0.932925 0.513337 -0.156807 -0.9384114 -0.1990069 0.2824542 0.508882 0.543978
-0.932925 0.5128999 -0.263755 -0.684873 -0.5189439 -0.5115136 0.472732 0.445138
-0.476259 0.08167099 -0.07638597 0.09934726 0.4365543 0.8941759 0.529059 0.364506
-0.476259 0.09033799 -0.179315 0.3293611 0.363629 -0.8713755 0.529059 0.364506
-0.557987 0.05664499 -0.115608 -0.8014647 -0.2438936 0.5460498 0.496143 0.459989
-0.557987 0.060272 -0.158677 -0.7379382 -0.1332136 -0.66159 0.515598 0.359460
-0.496468 -0.046475 -0.08426798 -0.2713437 -0.6219906 0.7345068 0.818348 0.256993
-0.490543 -0.039798 -0.187196 -0.1143084 -0.7854646 -0.6082588 0.527150 0.342303
-0.576533 -0.017142 -0.123489 -0.9450767 -0.1678435 0.2804615 0.826462 0.259948
-0.574054 -0.014348 -0.166558 -0.6402831 -0.4324169 -0.6348647 0.513440 0.346628
-0.343008 0.03673 -0.09165899 0.7536621 0.1590488 0.6377279 0.805540 0.256008
-0.343008 0.04234499 -0.158338 0.6784115 0.6697783 -0.3019187 0.798281 0.254056
-0.3561 -0.046285 -0.09676498 0.411038 -0.8463905 0.3386307 0.810018 0.252011
-0.352262 -0.041959 -0.163443 0.706469 -0.3607446 -0.6089048 0.806039 0.244347
0.187096 1.930944 -0.103224 -0.04210493 0.8056613 -0.5908782 0.402589 0.799316
0.285463 1.257604 -0.394226 0.2587064 -0.3703226 -0.8921503 0.664689 0.558352
0.187096 1.969817 -8.178226e-09 -0.03369817 0.999432 -3.904265e-09 0.404764 0.834540
0.299458 0.8346859 -1.308972e-08 0.9357386 -0.3526945 -1.448217e-07 0.686596 0.505429
0.078646 0.8489689 -3.437726e-09 -0.8848318 -0.4659106 2.532918e-08 0.615106 0.456935
0.02793299 0.8298609 -0.204344 -0.7264036 -0.4637817 -0.5071926 0.615106 0.456935
0.299458 0.8321549 -0.192439 0.5520352 -0.3667762 -0.7488207 0.658240 0.455799
0.204605 0.279912 -0.08745601 -0.06989262 -0.3333063 0.9402244 0.629351 0.387910
0.09860599 0.28456 -0.08996601 -0.6678708 0.005540381 0.7442566 0.629351 0.387910
0.09860599 0.277541 -0.171991 -0.7150186 -0.02589031 -0.6986259 0.646191 0.387507
0.204605 0.278668 -0.167615 -0.04947869 -0.2313792 -0.9716046 0.646191 0.387507
0.166616 0.05069499 -0.05836301 -0.6645487 -0.4418404 0.602621 0.625532 0.359168
0.085677 0.114709 -0.060874 -0.8805105 -0.3566044 0.3123052 0.638662 0.348615
0.08108599 0.109148 -0.153554 -0.6011488 -0.3297559 -0.7279294 0.638662 0.348615
0.165802 0.049709 -0.154163 -0.6108209 -0.6034483 -0.5125895 0.638662 0.348615
0.260496 0.08161099 -0.17366 -0.2782326 -0.4838787 -0.8297277 0.654189 0.353716
0.260496 0.082854 -0.07786001 -0.8128148 -0.4701383 0.3439508 0.638662 0.348615
0.198831 -0.009441999 -0.155223 -0.4533682 -0.5720651 -0.6835194 0.643619 0.338390
0.199645 -0.008456999 -0.05942301 -0.1612865 -0.5840015 0.7955683 0.625532 0.359168
0.362374 -0.012631 -0.115209 -0.0775123 -0.9967223 0.02315989 0.629351 0.387910
-0.749202 0.365369 0.291799 0 0 0 -0.310808 -0.124553
-0.06365102 1.516446 -0.391284 -0.01741585 0.2744833 -0.9614342 0.612359 0.604207
0.53621 1.52863 -0.391284 0.3801802 -0.02328365 -0.9246194 0.704361 0.600528
-0.534878 1.657244 -0.391284 0.03781491 0.4791503 -0.876918 0.539557 0.631245
0.790954 1.777292 -0.205215 0.3021269 0.1392867 -0.9430369 0.753629 0.644121
0.820707 2.132558 -0.204078 0.09584823 0.02799598 -0.9950022 0.761793 0.705777
0.862091 2.645531 -0.15931 -0.1591474 -0.2532704 -0.954215 0.775082 0.796039
0.922346 2.80192 -0.201613 -0.2496036 -0.2402679 -0.9380669 0.784674 0.823977
1.065943 2.903218 -0.134455 0.6418604 0.6362576 -0.4280089 0.808085 0.842919
1.065943 2.908842 -4.659385e-08 0.660582 0.7507538 -7.882714e-08 0.819635 0.855419
1.022856 2.85257 -0.177623 0.3330583 0.2423551 -0.9112279 0.799993 0.833187
-0.956269 1.681812 -0.354905 -0.376265 0.4154497 -0.8281462 0.474838 0.641182
-1.224137 1.534379 -0.1937899 -0.7335928 0.1587233 -0.6607938 0.441382 0.622138
0.23628 1.613711 -0.391284 0.05076563 0.2688558 -0.9618417 0.660185 0.616941
-0.795728 1.97495 -0.04889797 -0.1635887 0.7189136 -0.6755754 0.500747 0.699795
-0.695419 1.325232 -0.468952 -0.1098906 -0.004955224 -0.9939314 0.509857 0.578454
-0.789093 2.015798 3.449235e-08 -0.2560971 0.966651 -7.694219e-07 0.246080 0.847768
-0.770769 0.869566 -0.406321 -0.0593089 -0.2341226 -0.9703964 0.491667 0.505484
-0.770769 0.8620809 3.369138e-08 -0.5298792 -0.8480731 -7.02499e-08 0.501193 0.553813
-0.798094 0.5811799 -0.308176 -0.005613992 -0.2980703 -0.9545274 0.483681 0.454610
-0.798094 0.5736949 -0.08529196 -0.2709094 -0.3160309 0.9092483 0.513394 0.500061
-0.891431 0.480248 -0.247624 -0.4233172 -0.7164927 -0.5544735 0.467167 0.435737
-0.891431 0.477116 -0.1543609 -0.5685554 -0.6443411 0.5114385 0.505501 0.536645
-0.745573 1.669528 -0.373094 -0.0234747 0.483768 -0.8748814 0.506961 0.636654
0.967042 3.052376 -0.120864 0.6181841 -0.2918468 -0.729845 0.781561 0.876562
0.889076 3.103156 -0.108232 -0.1977951 0.3220497 -0.92583 0.767445 0.878390
0.889076 3.191309 -0.06543404 -0.4585056 0.8676479 0.1922487 0.759874 0.892987
0.967042 3.052376 -0.06543405 0.7961335 -0.4085155 0.4464152 0.791300 0.879984
0.813564 2.982247 -3.556201e-08 0.01685831 0.9998578 -2.666879e-08 0.122606 0.588169
1.102446 2.676746 -0.130781 0.2268532 -0.4882552 -0.8427007 0.814054 0.804657
1.269517 2.669638 -5.549235e-08 0.7862105 -0.6179587 1.428749e-07 0.840810 0.804005
0.842756 2.977743 -0.142372 -0.1357757 0.3376097 -0.9314423 0.768292 0.855609
0.865265 3.047749 -0.03976104 0.03934702 0.3274065 0.944064 0.111741 0.578503
0.872 3.039966 -0.117686 -0.2193632 0.207163 -0.9533957 0.769419 0.867500
1.006332 3.149995 -0.06393404 0.9829054 0.009294332 0.1838766 0.781994 0.895783
0.974419 3.115566 -0.111409 0.3444238 0.1541745 -0.9260683 0.777877 0.885243
0.972601 2.827245 -0.1896181 -0.0373756 0.003463604 -0.9992953 0.792446 0.828792
0.928059 3.094898 -0.04250504 0.2258485 0.05045624 0.9728549 0.104627 0.567991
0.928059 3.077766 -0.114548 -0.03702962 0.1136397 -0.9928317 0.774583 0.877015
1.164569 2.635854 -0.03758505 0.2690785 -0.8918037 -0.3637071 0.824628 0.796218
1.221519 2.814476 -0.07805105 0.6413444 0.4897064 -0.590648 0.836845 0.831845
1.200562 2.720286 -0.1062231 0.5419737 -0.06804322 -0.8376364 0.829203 0.812310
1.185982 2.673192 -0.1009771 0.4514166 -0.5582808 -0.6960931 0.827432 0.804331
1.091968 2.617212 -4.773144e-08 0.189274 -0.9819242 -1.074054e-06 0.813119 0.794402
1.164569 2.626098 -5.090493e-08 0.2030393 -0.9791706 -2.388097e-06 0.824628 0.796218
-0.061814 0.980655 2.701976e-09 -0.4674967 -0.8839948 2.718533e-08 0.664689 0.547500
-0.289544 1.178738 -0.362847 0.01202306 -0.5186644 -0.8548934 0.577222 0.546540
-0.352687 2.012395 1.541644e-08 0.1832628 0.9830639 -3.302649e-07 0.321847 0.841759
-0.360041 1.971334 -0.09924498 0.1609607 0.7841517 -0.599331 0.318655 0.806297
-0.324793 1.594473 -0.391284 0.1074815 0.2963009 -0.9490277 0.575958 0.617726
-0.336401 1.045941 -0.145217 0.223134 -0.8840802 -0.4106257 0.574795 0.601062
-0.333838 1.0142 1.459252e-08 0.2276579 -0.9737411 -5.916011e-07 0.573800 0.548429
-1.333846 1.816021 5.830426e-08 -0.3669311 -0.9302481 3.536777e-08 0.137798 0.838212
-1.263726 1.272967 5.523922e-08 -0.8786531 -0.4774607 3.840715e-08 0.426005 0.590314
-1.072428 1.07321 4.687731e-08 -0.8005261 -0.5992979 3.499211e-08 0.431595 0.555712
-1.275465 1.478348 5.575234e-08 -0.9747396 -0.2233447 3.1864e-08 0.440766 0.622753
0.260496 0.08161099 -0.17366 -0.9620579 -0.2728177 0.003886705 0.654189 0.353716
0.299458 0.8346859 -1.308972e-08 0.9856378 -0.1688731 -4.30836e-08 0.658240 0.455799
0.299458 0.8321549 -0.192439 0.9856349 -0.1688726 0.002420944 0.615106 0.456935
0.204605 0.279912 -0.08745601 0.9856349 -0.1688726 0.002420944 0.646191 0.387507
0.204605 0.278668 -0.167615 0.985635 -0.1688726 0.002420944 0.629351 0.387910
1.221519 2.814476 0.07805095 0.6413444 0.4897064 0.590648 0.835135 0.829820
1.309156 2.773601 -5.722502e-08 0.8056616 0.5923761 -3.521659e-08 0.849646 0.823167
0.932788 2.987949 -4.077346e-08 0.5242753 0.8515489 -1.68156e-07 0.122698 0.568794
0.938647 3.011222 0.04870896 0.7323936 0.07743008 -0.6764646 0.796664 0.874657
0.889076 3.191309 0.06543396 -0.45851 0.867645 -0.1922515 0.087740 0.572452
0.9728 3.227127 0.07488295 0.5244371 0.7961243 0.3019137 0.078696 0.558647
1.006332 3.149995 0.06393395 0.9829048 0.009296393 -0.1838799 0.096145 0.554983
-0.795728 1.97495 0.04889803 -0.1635892 0.7189137 0.6755751 0.243085 0.819703
-1.06451 1.924657 0.02217305 0.1205081 0.4051847 0.9062578 0.213263 0.829785
-1.274346 1.724223 5.570343e-08 -0.9815308 -0.1913044 -4.031412e-08 0.192388 0.786158
-0.986798 0.9239429 0.205448 -0.8227283 -0.3657754 0.4351167 0.504069 0.519436
-0.897256 0.6592109 0.291716 -0.8410949 -0.08712798 0.5338241 0.496083 0.468562
-0.554739 0.8825449 2.424841e-08 0.7457564 -0.6662188 -2.690086e-07 0.529919 0.486682
-0.698931 0.487134 0.07944703 0.4183096 -0.08075728 -0.9047073 0.498073 0.438357
-0.891431 0.480248 0.247624 -0.4233172 -0.7164927 0.5544735 0.520688 0.532859
-0.932925 0.5128999 0.263755 -0.684873 -0.5189439 0.5115137 0.536980 0.543743
-0.698931 0.5031489 0.269625 0.4952731 -0.3346218 0.8017062 0.498073 0.438357
-0.798094 0.5736949 0.08529203 -0.2709095 -0.316031 -0.9092484 0.497893 0.500061
-0.698931 0.487134 0.07944703 0.4183096 -0.08075728 -0.9047073 0.483849 0.479151
-0.891431 0.477116 0.154361 -0.5685554 -0.6443411 -0.5114385 0.519453 0.487039
-0.932925 0.513337 0.1568071 -0.9384114 -0.1990069 -0.2824542 0.473507 0.456377
-0.932925 0.5128999 0.263755 -0.684873 -0.5189439 0.5115137 0.491195 0.452402
-0.698931 0.5031489 0.269625 0.4952731 -0.3346218 0.8017062 0.473201 0.429032
-0.476259 0.09033799 0.179315 0.3293611 0.363629 0.8713755 0.515598 0.359460
-0.849938 0.440896 0.151916 -0.5928977 -0.5470803 -0.5909107 0.514127 0.545242
-0.698931 0.487134 0.07944703 0.4183096 -0.08075728 -0.9047073 0.482298 0.545810
-0.476259 0.08167099 0.07638602 0.09934719 0.4365543 -0.8941759 0.481331 0.459502
-0.849938 0.447597 0.231493 -0.5768262 -0.6644026 0.4752271 0.515805 0.525386
-0.849938 0.440896 0.151916 -0.5928977 -0.5470803 -0.5909107 0.501725 0.528190
-0.557987 0.05664499 0.115608 -0.8014647 -0.2438936 -0.5460497 0.483741 0.442937
-0.557987 0.060272 0.158677 -0.7379382 -0.1332136 0.6615902 0.491690 0.442823
-0.490543 -0.039798 0.187196 -0.1143084 -0.7854646 0.6082588 0.826425 0.244035
-0.574054 -0.014348 0.166558 -0.6402831 -0.4324169 0.6348647 0.832156 0.257616
-0.557987 0.05664499 0.115608 -0.8014647 -0.2438936 -0.5460497 0.824784 0.270866
-0.476259 0.08167099 0.07638602 0.09934719 0.4365543 -0.8941759 0.809973 0.270378
-0.557987 0.060272 0.158677 -0.7379382 -0.1332136 0.6615902 0.832733 0.270752
-0.352262 -0.041959 0.163443 0.706469 -0.3607446 0.6089047 0.549460 0.342504
-0.343008 0.04234499 0.158338 0.6784115 0.6697783 0.3019187 0.550696 0.356888
-0.476259 0.09033799 0.179315 0.3293611 0.363629 0.8713755 0.795916 0.271338
0.02793301 0.8298609 0.204344 -0.7264037 -0.4637819 0.5071924 0.658240 0.455799
0.09860601 0.28456 0.08996599 -0.6678709 0.005540381 -0.7442566 0.646191 0.387507
0.204605 0.279912 0.087456 0.6662746 -0.05986019 -0.7433 0.629351 0.387910
0.078646 0.8489689 -3.437726e-09 -0.8848318 -0.4659106 2.532918e-08 0.658240 0.455799
0.299458 0.8346859 -1.308972e-08 0.9357386 -0.3526945 -1.448217e-07 0.606580 0.467011
0.09860601 0.277541 0.171991 -0.7150185 -0.02589031 0.698626 0.629351 0.387910
0.085677 0.114709 0.060874 -0.8805105 -0.3566044 -0.3123052 0.625532 0.359168
0.08108601 0.109148 0.153554 -0.6011487 -0.3297559 0.7279294 0.625532 0.359168
0.260496 0.082854 0.07785998 0.8497999 -0.122133 -0.5127609 0.638662 0.348615
0.199645 -0.008456999 0.05942299 -0.1612865 -0.5840015 -0.7955683 0.629351 0.387910
0.362374 -0.012631 0.115209 -0.0775123 -0.9967223 -0.02315989 0.669553 0.346190
0.447932 1.942708 0.07930297 -0.07842418 0.7527894 0.653573 0.698677 0.674776
0.187096 1.930944 0.103224 -0.04210487 0.8056613 0.5908782 0.657307 0.678173
0.573292 2.089376 -2.505939e-08 -0.8196105 0.5729212 4.851877e-08 0.721322 0.701577
-0.07373999 1.91918 0.102002 0.07932508 0.7953596 0.6009248 0.615884 0.679404
-0.360041 1.971334 0.09924501 0.1609617 0.7841519 0.5993305 0.575372 0.689469
-0.897256 0.6602569 0.09113704 -0.7807523 -0.2881928 -0.5544102 0.513225 0.519643
-0.932925 0.513337 0.1568071 -0.9384114 -0.1990069 -0.2824542 0.522834 0.494372
-0.574079 0.886201 0.274556 0.5641443 -0.4846739 0.6684553 0.529919 0.486682
-0.986798 0.9249889 4.313431e-08 -0.8102756 -0.586049 2.466785e-08 0.517381 0.569653
-0.770769 0.8620809 3.369138e-08 -0.5298792 -0.8480731 -7.02499e-08 0.485691 0.553813
-0.590367 2.01329 0.09702802 -0.06145317 0.8010729 0.5954038 0.276611 0.810868
0.758066 3.084275 0.06268997 -0.6232772 0.7495292 -0.2230054 0.102913 0.594593
0.967042 3.052376 0.06543396 0.7961333 -0.4085157 -0.4464154 0.112183 0.561465
0.99374 3.106668 0.07502796 0.9512442 -0.3029163 -0.05810481 0.103550 0.553078
0.744802 2.948414 -3.255633e-08 -0.9791938 0.2029274 -1.543274e-06 0.123563 0.604275
-0.289544 1.178738 0.362847 0.01202453 -0.5186638 0.8548937 0.576059 0.529875
-0.479389 1.262325 0.394227 0.2278888 -0.2210272 0.9482688 0.543065 0.548090
-0.574079 0.886201 0.274556 0.5641443 -0.4846739 0.6684553 0.538395 0.614581
0.078646 0.8489689 -3.437726e-09 -0.8848318 -0.4659106 2.532918e-08 0.658240 0.444948
0.02793301 0.8298609 0.204344 -0.7264037 -0.4637819 0.5071924 0.615106 0.446083
-0.05356199 1.074838 0.323842 -0.2130328 -0.4460743 0.8692726 0.610217 0.517474
0.299458 0.8346859 -1.308972e-08 0.9357386 -0.3526945 -1.448217e-07 0.649714 0.465876
0.299458 0.8321549 0.192439 0.552035 -0.3667766 0.7488206 0.615106 0.456935
0.204605 0.278668 0.167615 0.5867053 -0.01418109 0.8096764 0.629351 0.387910
0.204605 0.279912 0.087456 0.6662746 -0.05986019 -0.7433 0.646191 0.387507
-0.061814 0.980655 2.701976e-09 -0.4674967 -0.8839948 2.718533e-08 0.612359 0.604207
-0.336401 1.045941 0.145218 0.2231349 -0.8840799 0.4106256 0.572015 0.619190
-0.336401 1.045941 0.145218 0.2231349 -0.8840799 0.4106256 0.575958 0.617726
-0.336401 1.045941 0.145218 0.2231349 -0.8840799 0.4106256 0.573565 0.600588
-0.574079 0.886201 0.274556 0.5641443 -0.4846739 0.6684553 0.541107 0.612643
-0.554739 0.8825449 2.424841e-08 0.7457564 -0.6662188 -2.690086e-07 0.545778 0.546152
-0.333838 1.0142 1.459252e-08 0.2276579 -0.9737411 -5.916011e-07 0.575350 0.529827
-1.274346 1.724223 5.570343e-08 -0.9815308 -0.1913044 -4.031412e-08 0.178454 0.809837
-1.274346 1.724223 5.570343e-08 -0.9815308 -0.1913044 -4.031412e-08 0.185656 0.799089
-1.224335 1.344733 0.1856411 -0.8411347 -0.117275 0.5279574 0.474838 0.641182
-1.224137 1.534379 0.1937901 -0.7335928 0.1587233 0.660794 0.469195 0.698225
-0.986798 0.9239429 0.205448 -0.8227283 -0.3657754 0.4351167 0.478198 0.591904
-0.986798 0.9249889 4.313431e-08 -0.8102756 -0.586049 2.466785e-08 0.456827 0.516293
1.221519 2.814476 -0.07805105 0.6413444 0.4897064 -0.590648 0.835135 0.829820
0.938647 3.011222 -0.04870904 0.7323934 0.07743016 0.6764646 0.796664 0.874657
1.006332 3.149995 -0.06393404 0.9829054 0.009294332 0.1838766 0.096145 0.554983
0.9728 3.227127 -0.07488205 0.5244374 0.796122 -0.3019193 0.078696 0.558647
0.889076 3.191309 -0.06543404 -0.4585056 0.8676479 0.1922487 0.087740 0.572452
-0.795728 1.97495 -0.04889797 -0.1635887 0.7189136 -0.6755754 0.243085 0.819703
-1.06451 1.924657 -0.02217295 0.1205086 0.4051847 -0.9062577 0.213263 0.829785
-0.986798 0.9239429 -0.205448 -0.822728 -0.3657755 -0.4351172 0.504069 0.519436
-0.897256 0.6592109 -0.291716 -0.8410944 -0.08712721 -0.5338249 0.496083 0.468562
-0.698931 0.487134 -0.07944697 0.4183096 -0.08075728 0.9047073 0.498073 0.438357
-0.932925 0.5128999 -0.263755 -0.684873 -0.5189439 -0.5115136 0.536980 0.543743
-0.891431 0.480248 -0.247624 -0.4233172 -0.7164927 -0.5544735 0.520688 0.532859
-0.698931 0.5031489 -0.269625 0.4952732 -0.3346215 -0.8017063 0.498073 0.438357
-0.798094 0.5736949 -0.08529196 -0.2709095 -0.316031 0.9092484 0.497893 0.500061
-0.891431 0.477116 -0.1543609 -0.5685554 -0.6443411 0.5114385 0.519453 0.487039
-0.698931 0.487134 -0.07944697 0.4183096 -0.08075728 0.9047073 0.483849 0.479151
-0.932925 0.5128999 -0.263755 -0.684873 -0.5189439 -0.5115136 0.491195 0.452402
-0.932925 0.513337 -0.156807 -0.9384114 -0.1990069 0.2824542 0.473507 0.456377
-0.476259 0.09033799 -0.179315 0.3293611 0.363629 -0.8713755 0.515598 0.359460
-0.698931 0.5031489 -0.269625 0.4952732 -0.3346214 -0.8017062 0.473201 0.429032
-0.849938 0.440896 -0.151916 -0.5928977 -0.5470803 0.5909107 0.514127 0.545242
-0.476259 0.08167099 -0.07638597 0.09934726 0.4365543 0.8941759 0.481331 0.459502
-0.698931 0.487134 -0.07944697 0.4183096 -0.08075728 0.9047073 0.482298 0.545810
-0.849938 0.447597 -0.231493 -0.5768262 -0.6644026 -0.475227 0.515805 0.525386
-0.557987 0.060272 -0.158677 -0.7379382 -0.1332136 -0.66159 0.491690 0.442823
-0.557987 0.05664499 -0.115608 -0.8014647 -0.2438936 0.5460498 0.483741 0.442937
-0.849938 0.440896 -0.151916 -0.5928977 -0.5470803 0.5909107 0.501725 0.528190
-0.574054 -0.014348 -0.166558 -0.6402831 -0.4324169 -0.6348647 0.832156 0.257616
-0.490543 -0.039798 -0.187196 -0.1143084 -0.7854646 -0.6082588 0.826425 0.244035
-0.557987 0.05664499 -0.115608 -0.8014647 -0.2438936 0.5460498 0.824784 0.270866
-0.476259 0.08167099 -0.07638597 0.09934726 0.4365543 0.8941759 0.809973 0.270378
-0.557987 0.060272 -0.158677 -0.7379382 -0.1332136 -0.66159 0.832733 0.270752
-0.343008 0.04234499 -0.158338 0.6784115 0.6697783 -0.3019187 0.550696 0.356888
-0.352262 -0.041959 -0.163443 0.706469 -0.3607446 -0.6089048 0.549460 0.342504
-0.476259 0.09033799 -0.179315 0.3293611 0.363629 -0.8713755 0.795916 0.271338
0.02793299 0.8298609 -0.204344 -0.7264036 -0.4637817 -0.5071926 0.658240 0.455799
0.09860599 0.28456 -0.08996601 -0.6678708 0.005540381 0.7442566 0.646191 0.387507
0.09860599 0.277541 -0.171991 -0.7150186 -0.02589031 -0.6986259 0.629351 0.387910
0.085677 0.114709 -0.060874 -0.8805105 -0.3566044 0.3123052 0.625532 0.359168
0.08108599 0.109148 -0.153554 -0.6011488 -0.3297559 -0.7279294 0.625532 0.359168
0.199645 -0.008456999 -0.05942301 -0.1612865 -0.5840015 0.7955683 0.629351 0.387910
0.362374 -0.012631 -0.115209 -0.0775123 -0.9967223 0.02315989 0.669553 0.346190
0.447932 1.942708 -0.07930302 -0.07842424 0.7527894 -0.653573 0.698677 0.674776
0.187096 1.930944 -0.103224 -0.04210493 0.8056613 -0.5908782 0.657307 0.678173
-0.07374001 1.91918 -0.102002 0.07932502 0.7953596 -0.6009248 0.615884 0.679404
-0.360041 1.971334 -0.09924498 0.1609607 0.7841517 -0.599331 0.575372 0.689469
-0.897256 0.6602569 -0.09113696 -0.7807523 -0.2881928 0.5544103 0.513225 0.519643
-0.932925 0.513337 -0.156807 -0.9384114 -0.1990069 0.2824542 0.522834 0.494372
-0.574079 0.886201 -0.274555 0.5641448 -0.4846734 -0.6684552 0.529919 0.486682
-0.590367 2.01329 -0.09702697 -0.06145307 0.8010724 -0.5954045 0.276611 0.810868
0.758066 3.084275 -0.06269003 -0.6232799 0.7495282 0.2230015 0.102913 0.594593
0.967042 3.052376 -0.06543405 0.7961335 -0.4085155 0.4464152 0.112183 0.561465
0.99374 3.106668 -0.07502805 0.9512443 -0.3029167 0.0581023 0.103550 0.553078
-0.574079 0.886201 -0.274555 0.5641448 -0.4846734 -0.6684552 0.538395 0.614581
-0.479389 1.262325 -0.394226 0.227888 -0.2210281 -0.9482688 0.543065 0.548090
-0.289544 1.178738 -0.362847 0.01202306 -0.5186644 -0.8548934 0.576059 0.529875
-0.05356202 1.074838 -0.323842 -0.2130321 -0.4460746 -0.8692726 0.610217 0.517474
0.02793299 0.8298609 -0.204344 -0.7264036 -0.4637817 -0.5071926 0.615106 0.446083
0.204605 0.279912 -0.08745601 -0.06989262 -0.3333063 0.9402244 0.646191 0.387507
0.204605 0.278668 -0.167615 -0.04947869 -0.2313792 -0.9716046 0.629351 0.387910
0.299458 0.8321549 -0.192439 0.5520352 -0.3667762 -0.7488207 0.615106 0.456935
-0.336401 1.045941 -0.145217 0.223134 -0.8840802 -0.4106257 0.572015 0.619190
-0.336401 1.045941 -0.145217 0.223134 -0.8840802 -0.4106257 0.575958 0.617726
-0.336401 1.045941 -0.145217 0.223134 -0.8840802 -0.4106257 0.573565 0.600588
-0.574079 0.886201 -0.274555 0.5641448 -0.4846734 -0.6684552 0.541107 0.612643
-1.224335 1.344733 -0.1856409 -0.8411347 -0.117275 -0.5279573 0.474838 0.641182
-1.224137 1.534379 -0.1937899 -0.7335928 0.1587233 -0.6607938 0.469195 0.698225
-0.986798 0.9239429 -0.205448 -0.822728 -0.3657755 -0.4351172 0.478198 0.591904
0.260496 0.082854 -0.07786001 -0.8128148 -0.4701383 0.3439508 0.643619 0.338390
0.204605 0.279912 -0.08745601 -0.06989262 -0.3333063 0.9402244 0.638662 0.348615
3 113 51 53 
3 113 53 190 
3 57 62 63 
3 57 63 54 
3 113 190 193 
3 113 193 188 
3 69 113 123 
3 69 123 71 
3 189 50 0 
3 189 0 120 
3 107 70 3 
3 107 3 105 
3 87 80 19 
3 87 19 77 
3 79 68 4 
3 79 4 51 
3 254 106 2 
3 254 2 114 
3 120 0 122 
3 71 123 119 
3 71 119 72 
3 72 119 126 
3 72 126 73 
3 125 5 129 
3 73 126 6 
3 73 6 74 
3 136 9 8 
3 136 8 133 
3 76 10 7 
3 76 7 75 
3 104 101 134 
3 104 134 237 
3 132 7 102 
3 132 102 135 
3 216 75 7 
3 216 7 132 
3 268 103 139 
3 268 139 269 
3 98 92 10 
3 98 10 76 
3 129 5 11 
3 129 11 12 
3 100 88 18 
3 100 18 97 
3 93 9 14 
3 93 14 95 
3 235 94 13 
3 235 13 270 
3 9 136 271 
3 9 271 14 
3 96 97 18 
3 96 18 17 
3 90 89 15 
3 90 15 16 
3 88 91 17 
3 88 17 18 
3 99 272 273 
3 99 273 274 
3 275 223 150 
3 275 150 276 
3 81 20 29 
3 81 29 82 
3 276 150 154 
3 276 154 22 
3 77 19 151 
3 77 151 78 
3 277 276 22 
3 277 22 23 
3 25 24 26 
3 25 26 27 
3 22 154 157 
3 22 157 24 
3 23 22 24 
3 23 24 25 
3 26 160 162 
3 26 162 27 
3 24 157 160 
3 24 160 26 
3 225 163 30 
3 225 30 84 
3 20 21 29 
3 83 33 37 
3 83 37 85 
3 278 165 32 
3 278 32 279 
3 82 29 33 
3 82 33 83 
3 280 28 31 
3 280 31 281 
3 86 282 283 
3 86 283 36 
3 284 35 41 
3 284 41 39 
3 285 286 34 
3 285 34 287 
3 279 32 288 
3 279 288 289 
3 39 41 45 
3 39 45 43 
3 281 290 291 
3 281 291 38 
3 292 293 294 
3 292 294 40 
3 295 296 297 
3 295 297 298 
3 42 299 300 
3 42 300 44 
3 299 42 48 
3 299 48 49 
3 301 302 42 
3 301 42 44 
3 303 301 44 
3 303 44 300 
3 46 47 49 
3 46 49 48 
3 39 43 304 
3 39 304 305 
3 302 306 47 
3 302 47 46 
3 42 302 46 
3 42 46 48 
3 51 4 52 
3 51 52 53 
3 69 79 51 
3 69 51 113 
3 114 2 50 
3 114 50 189 
3 307 191 55 
3 307 55 56 
3 308 309 58 
3 308 58 59 
3 264 109 111 
3 264 111 110 
3 310 311 309 
3 310 309 308 
3 53 52 312 
3 53 312 57 
3 56 55 313 
3 56 313 60 
3 57 312 314 
3 57 314 61 
3 66 65 315 
3 57 61 64 
3 57 64 62 
3 309 58 315 
3 313 58 61 
3 313 61 60 
3 64 61 58 
3 64 58 316 
3 62 64 317 
3 318 319 79 
3 318 79 69 
3 20 77 78 
3 20 78 21 
3 93 98 76 
3 93 76 9 
3 133 8 75 
3 133 75 216 
3 9 76 75 
3 9 75 8 
3 125 73 74 
3 125 74 5 
3 124 72 73 
3 124 73 125 
3 320 71 72 
3 320 72 124 
3 319 321 68 
3 319 68 79 
3 81 87 77 
3 81 77 20 
3 322 1 70 
3 322 70 107 
3 318 69 71 
3 318 71 320 
3 3 70 87 
3 3 87 81 
3 323 285 287 
3 323 287 324 
3 296 295 282 
3 296 282 86 
3 325 82 83 
3 325 83 284 
3 284 83 85 
3 284 85 35 
3 326 327 285 
3 326 285 323 
3 3 81 82 
3 3 82 325 
3 328 121 223 
3 328 223 275 
3 70 1 80 
3 70 80 87 
3 94 329 272 
3 94 272 99 
3 14 271 91 
3 14 91 88 
3 12 11 89 
3 12 89 90 
3 95 14 88 
3 95 88 100 
3 11 95 100 
3 11 100 89 
3 13 94 99 
3 13 99 330 
3 5 74 98 
3 5 98 93 
3 330 99 274 
3 330 274 331 
3 16 15 97 
3 16 97 96 
3 94 235 329 
3 5 93 95 
3 5 95 11 
3 89 100 97 
3 89 97 15 
3 74 6 92 
3 74 92 98 
3 103 104 237 
3 103 237 139 
3 329 235 332 
3 10 92 104 
3 10 104 103 
3 7 10 103 
3 7 103 268 
3 92 6 101 
3 92 101 104 
3 101 6 250 
3 101 250 251 
3 6 126 250 
3 101 251 134 
3 108 333 334 
3 108 334 335 
3 252 336 337 
3 252 337 338 
3 339 340 341 
3 339 341 342 
3 343 344 258 
3 343 4 105 
3 343 105 345 
3 321 322 107 
3 321 107 68 
3 121 328 106 
3 121 106 254 
3 68 107 105 
3 68 105 4 
3 346 347 348 
3 346 348 349 
3 25 27 259 
3 25 259 350 
3 27 162 259 
3 23 25 351 
3 352 353 151 
3 352 151 262 
3 354 260 261 
3 354 261 355 
3 354 352 262 
3 354 262 260 
3 65 66 64 
3 62 63 317 
3 316 58 315 
3 209 211 123 
3 209 123 113 
3 189 120 112 
3 189 112 187 
3 256 253 117 
3 256 117 210 
3 230 218 148 
3 230 148 221 
3 220 188 118 
3 220 118 208 
3 254 114 116 
3 254 116 255 
3 120 122 112 
3 211 212 119 
3 211 119 123 
3 212 213 126 
3 212 126 119 
3 125 129 127 
3 213 214 128 
3 213 128 126 
3 136 133 131 
3 136 131 137 
3 217 215 130 
3 217 130 138 
3 249 237 134 
3 249 134 246 
3 132 135 247 
3 132 247 130 
3 216 132 130 
3 216 130 215 
3 356 269 139 
3 356 139 248 
3 243 217 138 
3 243 138 236 
3 129 141 140 
3 129 140 127 
3 245 242 147 
3 245 147 231 
3 238 240 143 
3 238 143 137 
3 235 270 142 
3 235 142 239 
3 137 143 357 
3 137 357 136 
3 241 146 147 
3 241 147 242 
3 233 145 144 
3 233 144 232 
3 231 147 146 
3 231 146 234 
3 244 358 359 
3 244 359 360 
3 361 362 150 
3 361 150 223 
3 222 224 166 
3 222 166 149 
3 362 153 154 
3 362 154 150 
3 218 219 151 
3 218 151 148 
3 277 155 153 
3 277 153 362 
3 158 161 159 
3 158 159 156 
3 153 156 157 
3 153 157 154 
3 155 158 156 
3 155 156 153 
3 159 161 162 
3 159 162 160 
3 156 159 160 
3 156 160 157 
3 225 227 167 
3 225 167 163 
3 149 166 152 
3 226 228 174 
3 226 174 170 
3 363 364 169 
3 363 169 165 
3 224 226 170 
3 224 170 166 
3 280 365 168 
3 280 168 164 
3 229 173 366 
3 229 366 367 
3 368 176 178 
3 368 178 172 
3 369 370 171 
3 369 171 371 
3 364 372 373 
3 364 373 169 
3 176 180 182 
3 176 182 178 
3 365 175 374 
3 365 374 375 
3 376 177 377 
3 376 377 378 
3 379 380 381 
3 379 381 382 
3 179 181 383 
3 179 383 384 
3 384 186 185 
3 384 185 179 
3 385 181 179 
3 385 179 386 
3 387 383 181 
3 387 181 385 
3 183 185 186 
3 183 186 184 
3 176 388 389 
3 176 389 180 
3 386 183 184 
3 386 184 390 
3 179 185 183 
3 179 183 386 
3 188 193 192 
3 188 192 118 
3 209 113 188 
3 209 188 220 
3 114 189 187 
3 114 187 116 
3 391 196 195 
3 391 195 191 
3 392 199 198 
3 392 198 194 
3 264 266 267 
3 264 267 265 
3 310 392 194 
3 310 194 311 
3 193 197 393 
3 193 393 192 
3 196 200 394 
3 196 394 195 
3 197 201 395 
3 197 395 393 
3 206 203 205 
3 197 202 204 
3 197 204 201 
3 194 203 198 
3 394 200 201 
3 394 201 198 
3 204 396 198 
3 204 198 201 
3 202 397 204 
3 398 209 220 
3 398 220 399 
3 149 152 219 
3 149 219 218 
3 238 137 217 
3 238 217 243 
3 133 216 215 
3 133 215 131 
3 137 131 215 
3 137 215 217 
3 125 127 214 
3 125 214 213 
3 124 125 213 
3 124 213 212 
3 320 124 212 
3 320 212 211 
3 399 220 208 
3 399 208 400 
3 222 149 218 
3 222 218 230 
3 401 256 210 
3 401 210 115 
3 398 320 211 
3 398 211 209 
3 117 222 230 
3 117 230 210 
3 402 403 370 
3 402 370 369 
3 382 229 367 
3 382 367 379 
3 404 368 226 
3 404 226 224 
3 368 172 228 
3 368 228 226 
3 326 402 369 
3 326 369 327 
3 117 404 224 
3 117 224 222 
3 405 361 223 
3 405 223 121 
3 210 230 221 
3 210 221 115 
3 239 244 360 
3 239 360 406 
3 143 231 234 
3 143 234 357 
3 141 233 232 
3 141 232 140 
3 240 245 231 
3 240 231 143 
3 140 232 245 
3 140 245 240 
3 142 407 244 
3 142 244 239 
3 127 238 243 
3 127 243 214 
3 407 408 358 
3 407 358 244 
3 145 241 242 
3 145 242 144 
3 239 406 235 
3 127 140 240 
3 127 240 238 
3 232 144 242 
3 232 242 245 
3 214 243 236 
3 214 236 128 
3 248 139 237 
3 248 237 249 
3 406 332 235 
3 138 248 249 
3 138 249 236 
3 130 356 248 
3 130 248 138 
3 236 249 246 
3 236 246 128 
3 246 251 250 
3 246 250 128 
3 128 250 126 
3 246 134 251 
3 257 409 410 
3 257 410 411 
3 252 412 413 
3 252 413 336 
3 339 414 415 
3 339 415 416 
3 343 258 417 
3 343 418 253 
3 343 253 118 
3 400 208 256 
3 400 256 401 
3 121 254 255 
3 121 255 405 
3 208 118 253 
3 208 253 256 
3 419 349 348 
3 419 348 420 
3 158 350 259 
3 158 259 161 
3 161 259 162 
3 155 351 158 
3 421 262 151 
3 421 151 422 
3 423 355 261 
3 423 261 260 
3 423 260 262 
3 423 262 421 
3 197 263 424 
3 197 424 425 
3 205 204 206 
3 202 397 424 
3 396 203 198 
