ply
format ascii 1.0
comment VCGLIB generated
element vertex 36
property float x
property float y
property float z
property float nx
property float ny
property float nz
property float texture_u
property float texture_v
element face 12
property list uchar int vertex_indices
end_header
-1.5 -0.9 -0.45 -1.210376 -0.7262259 -0.3631128 0.000977 0.999023
1.5 -0.9 -0.45 0.7640867 -0.916904 -0.458452 0.497642 0.999023
-1.5 0.9 -0.45 -1.448606 0.4345817 -0.4345817 0.000977 0.502358
1.5 0.9 -0.45 1.258806 0.7552838 -0.188821 0.499023 0.500977
-1.5 -0.9 0.45 -1.258806 -0.7552838 0.188821 0.000977 0.497642
1.5 -0.9 0.45 1.448606 -0.4345817 0.4345817 0.250000 0.248619
-1.5 0.9 0.45 -0.7640867 0.916904 0.458452 0.250000 0.251381
1.5 0.9 0.45 1.210376 0.7262259 0.3631128 0.500977 0.999023
1.5 -0.9 -0.45 0.7640867 -0.916904 -0.458452 0.499023 0.997642
-1.5 0.9 -0.45 -1.448606 0.4345817 -0.4345817 0.002358 0.500977
-1.5 0.9 -0.45 -1.448606 0.4345817 -0.4345817 0.000977 0.002358
-1.5 -0.9 -0.45 -1.210376 -0.7262259 -0.3631128 0.248619 0.250000
-1.5 0.9 -0.45 -1.448606 0.4345817 -0.4345817 0.497642 0.499023
-1.5 -0.9 0.45 -1.258806 -0.7552838 0.188821 0.002358 0.499023
1.5 -0.9 -0.45 0.7640867 -0.916904 -0.458452 0.499023 0.002358
-1.5 -0.9 0.45 -1.258806 -0.7552838 0.188821 0.499023 0.497642
-1.5 -0.9 -0.45 -1.210376 -0.7262259 -0.3631128 0.251381 0.250000
-1.5 -0.9 0.45 -1.258806 -0.7552838 0.188821 0.002358 0.000977
1.5 -0.9 -0.45 0.7640867 -0.916904 -0.458452 0.497642 0.000977
-1.5 0.9 0.45 -0.7640867 0.916904 0.458452 0.500977 0.502358
1.5 -0.9 0.45 1.448606 -0.4345817 0.4345817 0.997642 0.999023
1.5 -0.9 0.45 1.448606 -0.4345817 0.4345817 0.999023 0.997642
-1.5 0.9 0.45 -0.7640867 0.916904 0.458452 0.502358 0.500977
-1.5 -0.9 0.45 -1.258806 -0.7552838 0.188821 0.999023 0.500977
1.5 0.9 -0.45 1.258806 0.7552838 -0.188821 0.500977 0.497642
-1.5 0.9 0.45 -0.7640867 0.916904 0.458452 0.500977 0.002358
1.5 0.9 0.45 1.210376 0.7262259 0.3631128 0.748619 0.250000
-1.5 0.9 0.45 -0.7640867 0.916904 0.458452 0.997642 0.499023
1.5 0.9 -0.45 1.258806 0.7552838 -0.188821 0.502358 0.499023
-1.5 0.9 -0.45 -1.448606 0.4345817 -0.4345817 0.750000 0.251381
1.5 -0.9 0.45 1.448606 -0.4345817 0.4345817 0.999023 0.002358
1.5 0.9 -0.45 1.258806 0.7552838 -0.188821 0.999023 0.497642
1.5 0.9 0.45 1.210376 0.7262259 0.3631128 0.751381 0.250000
1.5 0.9 -0.45 1.258806 0.7552838 -0.188821 0.502358 0.000977
1.5 -0.9 0.45 1.448606 -0.4345817 0.4345817 0.997642 0.000977
1.5 -0.9 -0.45 0.7640867 -0.916904 -0.458452 0.750000 0.248619
3 2 1 0 
3 8 9 3 
3 4 10 11 
3 12 13 6 
3 14 15 16 
3 17 18 5 
3 19 20 7 
3 21 22 23 
3 24 25 26 
3 27 28 29 
3 30 31 32 
3 33 34 35 
