ply
format ascii 1.0
comment VCGLIB generated
element vertex 36
property float x
property float y
property float z
property float nx
property float ny
property float nz
property float texture_u
property float texture_v
element face 12
property list uchar int vertex_indices
end_header
-2 -0.9 -0.45 -1.776255 -0.799315 -0.3996574 0.000977 0.999023
2 -0.9 -0.45 1.121315 -1.009183 -0.5045918 0.497642 0.999023
-2 0.9 -0.45 -2.125863 0.4783191 -0.4783191 0.000977 0.502358
2 0.9 -0.45 1.847328 0.8312974 -0.2078243 0.499023 0.500977
-2 -0.9 0.45 -1.847328 -0.8312974 0.2078243 0.000977 0.497642
2 -0.9 0.45 2.125863 -0.4783191 0.4783191 0.250000 0.248619
-2 0.9 0.45 -1.121315 1.009183 0.5045918 0.250000 0.251381
2 0.9 0.45 1.776255 0.799315 0.3996574 0.500977 0.999023
2 -0.9 -0.45 1.121315 -1.009183 -0.5045918 0.499023 0.997642
-2 0.9 -0.45 -2.125863 0.4783191 -0.4783191 0.002358 0.500977
-2 0.9 -0.45 -2.125863 0.4783191 -0.4783191 0.000977 0.002358
-2 -0.9 -0.45 -1.776255 -0.799315 -0.3996574 0.248619 0.250000
-2 0.9 -0.45 -2.125863 0.4783191 -0.4783191 0.497642 0.499023
-2 -0.9 0.45 -1.847328 -0.8312974 0.2078243 0.002358 0.499023
2 -0.9 -0.45 1.121315 -1.009183 -0.5045918 0.499023 0.002358
-2 -0.9 0.45 -1.847328 -0.8312974 0.2078243 0.499023 0.497642
-2 -0.9 -0.45 -1.776255 -0.799315 -0.3996574 0.251381 0.250000
-2 -0.9 0.45 -1.847328 -0.8312974 0.2078243 0.002358 0.000977
2 -0.9 -0.45 1.121315 -1.009183 -0.5045918 0.497642 0.000977
-2 0.9 0.45 -1.121315 1.009183 0.5045918 0.500977 0.502358
2 -0.9 0.45 2.125863 -0.4783191 0.4783191 0.997642 0.999023
2 -0.9 0.45 2.125863 -0.4783191 0.4783191 0.999023 0.997642
-2 0.9 0.45 -1.121315 1.009183 0.5045918 0.502358 0.500977
-2 -0.9 0.45 -1.847328 -0.8312974 0.2078243 0.999023 0.500977
2 0.9 -0.45 1.847328 0.8312974 -0.2078243 0.500977 0.497642
-2 0.9 0.45 -1.121315 1.009183 0.5045918 0.500977 0.002358
2 0.9 0.45 1.776255 0.799315 0.3996574 0.748619 0.250000
-2 0.9 0.45 -1.121315 1.009183 0.5045918 0.997642 0.499023
2 0.9 -0.45 1.847328 0.8312974 -0.2078243 0.502358 0.499023
-2 0.9 -0.45 -2.125863 0.4783191 -0.4783191 0.750000 0.251381
2 -0.9 0.45 2.125863 -0.4783191 0.4783191 0.999023 0.002358
2 0.9 -0.45 1.847328 0.8312974 -0.2078243 0.999023 0.497642
2 0.9 0.45 1.776255 0.799315 0.3996574 0.751381 0.250000
2 0.9 -0.45 1.847328 0.8312974 -0.2078243 0.502358 0.000977
2 -0.9 0.45 2.125863 -0.4783191 0.4783191 0.997642 0.000977
2 -0.9 -0.45 1.121315 -1.009183 -0.5045918 0.750000 0.248619
3 2 1 0 
3 8 9 3 
3 4 10 11 
3 12 13 6 
3 14 15 16 
3 17 18 5 
3 19 20 7 
3 21 22 23 
3 24 25 26 
3 27 28 29 
3 30 31 32 
3 33 34 35 
