ply
format ascii 1.0
comment VCGLIB generated
comment TextureFile assets/textures/coin-texture.bmp
element vertex 132
property float x
property float y
property float z
property float nx
property float ny
property float nz
property float texture_u
property float texture_v
element face 124
property list uchar int vertex_indices
end_header
0 0.4 -0.06 0.0005202184 0.01584461 -0.1592127 0.754791 0.993160
0 0.4 0.06000004 -0.004978095 0.1516423 0.05079202 0.246704 0.989829
0.078036 0.392314 -0.06 0.03446652 0.1477574 -0.05079199 0.708953 0.983792
0.078036 0.392314 0.06000004 0.002580938 0.01564163 0.1592127 0.293322 0.980439
0.1530732 0.369552 -0.06000001 0.05488139 0.1210961 -0.0890156 0.664877 0.956048
0.1530732 0.369552 0.06000003 0.05343118 0.1420045 0.05079204 0.338148 0.952629
0.222228 0.332588 -0.05999997 0.07745165 0.1080624 -0.08901557 0.624255 0.910995
0.222228 0.332588 0.06000003 0.07019705 0.1129097 0.08901556 0.379461 0.907467
0.2828428 0.2828428 -0.05999998 0.09704543 0.09087584 -0.08901557 0.588650 0.850363
0.2828428 0.2828428 0.06000003 0.09087582 0.09704543 0.0890156 0.415671 0.846690
0.332588 0.222228 -0.05999998 0.1129097 0.07019706 -0.08901556 0.559430 0.776482
0.332588 0.222228 0.06000002 0.1080623 0.07745165 0.0890156 0.445388 0.772632
0.369552 0.1530732 -0.05999999 0.1244351 0.04682043 -0.08901557 0.537717 0.692193
0.369552 0.1530732 0.06000001 0.1210961 0.05488139 0.0890156 0.467470 0.688141
0.392314 0.078036 -0.06 0.1311782 0.02164499 -0.08901557 0.524347 0.600733
0.392314 0.078036 0.06000001 0.1294761 0.03020215 0.08901556 0.481068 0.596463
0.3999999 2.622683e-09 -0.06 0.1328804 -0.004362589 -0.08901557 0.519832 0.505618
0.3999999 -2.622683e-09 0.06 0.1328804 0.004362589 0.08901557 0.485659 0.501120
0.392314 -0.078036 -0.06000001 0.1294761 -0.03020215 -0.08901556 0.524347 0.410503
0.392314 -0.078036 0.06 0.1311782 -0.02164499 0.08901557 0.481068 0.405777
0.369552 -0.1530732 -0.06000001 0.1210961 -0.05488139 -0.0890156 0.537717 0.319043
0.369552 -0.1530732 0.05999999 0.1244351 -0.04682043 0.08901557 0.467470 0.314099
0.332588 -0.222228 -0.06000002 0.1080623 -0.07745165 -0.0890156 0.559430 0.234754
0.332588 -0.222228 0.05999998 0.1129097 -0.07019706 0.08901556 0.445388 0.229607
0.2828428 -0.2828428 -0.06000003 0.09087582 -0.09704543 -0.0890156 0.588650 0.160873
0.2828428 -0.2828428 0.05999998 0.09704543 -0.09087584 0.08901557 0.415671 0.155550
0.222228 -0.332588 -0.06000003 0.07019705 -0.1129097 -0.08901556 0.624255 0.100241
0.222228 -0.332588 0.05999997 0.07745165 -0.1080624 0.08901557 0.379461 0.094773
0.1530732 -0.369552 -0.06000003 0.04682041 -0.124435 -0.08901559 0.664876 0.055187
0.1530732 -0.369552 0.06000001 0.05488139 -0.1210961 0.0890156 0.338148 0.049611
0.078036 -0.392314 -0.06000004 0.02164498 -0.1311782 -0.08901559 0.708953 0.027443
0.078036 -0.392314 0.06 0.03020216 -0.1294761 0.08901557 0.293322 0.021801
0 -0.4 -0.06000004 -0.004362549 -0.1328804 -0.08901559 0.754791 0.018075
0 -0.4 0.06 0.004362616 -0.1328804 0.08901557 0.246704 0.012410
-0.0780364 -0.392314 -0.06000004 -0.03020255 -0.129476 -0.08901556 0.800629 0.027442
-0.0780364 -0.392314 0.06 -0.02164514 -0.1311782 0.08901559 0.200086 0.021801
-0.1530736 -0.3695516 -0.06000003 -0.05488161 -0.121096 -0.08901556 0.844706 0.055187
-0.1530736 -0.3695516 0.06000001 -0.0468208 -0.1244349 0.08901557 0.155260 0.049611
-0.2222284 -0.3325876 -0.06000003 -0.07745186 -0.1080622 -0.08901561 0.885327 0.100240
-0.2222284 -0.3325876 0.05999997 -0.07019715 -0.1129097 0.08901559 0.113948 0.094773
-0.2828428 -0.2828424 -0.06000003 -0.09704533 -0.09087595 -0.08901557 0.920932 0.160872
-0.2828428 -0.2828424 0.05999998 -0.09087595 -0.09704534 0.08901555 0.077737 0.155550
-0.332588 -0.222228 -0.06000002 -0.1129097 -0.07019714 -0.0890156 0.950153 0.234753
-0.332588 -0.222228 0.05999998 -0.1080622 -0.07745188 0.08901559 0.048020 0.229608
-0.369552 -0.1530732 -0.06000001 -0.1244351 -0.04682027 -0.08901557 0.971865 0.319043
-0.369552 -0.1530732 0.05999999 -0.1210961 -0.05488136 0.08901557 0.025938 0.314099
-0.392314 -0.07803559 -0.06000001 -0.1311782 -0.02164491 -0.08901557 0.985236 0.410502
-0.392314 -0.07803561 0.06 -0.1294762 -0.03020204 0.08901554 0.012341 0.405778
-0.3999999 4.026227e-07 -0.06 -0.1328804 0.004362598 -0.08901557 0.989750 0.505617
-0.3999999 3.973774e-07 0.06 -0.1328804 -0.004362598 0.08901557 0.007749 0.501120
-0.392314 0.07803641 -0.06 -0.129476 0.03020257 -0.08901557 0.985236 0.600732
-0.392314 0.07803639 0.06000001 -0.1311782 0.02164516 0.08901557 0.012341 0.596463
-0.3695516 0.1530736 -0.05999999 -0.121096 0.05488162 -0.08901556 0.971865 0.692192
-0.3695516 0.1530736 0.06000001 -0.1244349 0.04682079 0.08901557 0.025939 0.688141
-0.3325876 0.2222284 -0.05999998 -0.1080623 0.07745167 -0.08901557 0.950153 0.776482
-0.3325876 0.2222284 0.06000002 -0.1129097 0.07019705 0.08901557 0.048020 0.772633
-0.2828424 0.2828432 -0.05999998 -0.09087557 0.09704567 -0.08901559 0.920932 0.850362
-0.2828424 0.2828432 0.06000003 -0.09704532 0.09087595 0.08901559 0.077738 0.846690
-0.2222276 0.332588 -0.05999997 -0.07019691 0.1129098 -0.08901557 0.885327 0.910994
-0.2222276 0.332588 0.06000003 -0.07745137 0.1080626 0.08901557 0.113948 0.907467
-0.1530728 0.369552 -0.06000001 -0.0468208 0.1244349 -0.08901557 0.844706 0.956048
-0.1530728 0.369552 0.06000003 -0.05488161 0.121096 0.08901556 0.155260 0.952629
-0.0780356 0.3923144 -0.06 -0.02470088 0.1496998 -0.050792 0.800629 0.983792
-0.0780356 0.3923144 0.06000004 -0.03020239 0.1294761 0.08901559 0.200087 0.980439
0 0.4 -0.06 0.0005202184 0.01584461 -0.1592127 0.460948 -0.870217
0 0.4 0.06000004 -0.004978095 0.1516423 0.05079202 0.518503 -0.870217
0.078036 0.392314 0.06000004 0.002580938 0.01564163 0.1592127 0.518503 -0.801697
0.078036 0.392314 -0.06 0.03446652 0.1477574 -0.05079199 0.460948 -0.801698
0.1530732 0.369552 0.06000003 0.05343118 0.1420045 0.05079204 0.518503 -0.733178
0.1530732 0.369552 -0.06000001 0.05488139 0.1210961 -0.0890156 0.460948 -0.733179
0.222228 0.332588 0.06000003 0.07019705 0.1129097 0.08901556 0.518503 -0.664659
0.222228 0.332588 -0.05999997 0.07745165 0.1080624 -0.08901557 0.460948 -0.664660
0.2828428 0.2828428 0.06000003 0.09087582 0.09704543 0.0890156 0.518503 -0.596140
0.2828428 0.2828428 -0.05999998 0.09704543 0.09087584 -0.08901557 0.460948 -0.596141
0.332588 0.222228 0.06000002 0.1080623 0.07745165 0.0890156 0.518503 -0.527621
0.332588 0.222228 -0.05999998 0.1129097 0.07019706 -0.08901556 0.460948 -0.527621
0.369552 0.1530732 0.06000001 0.1210961 0.05488139 0.0890156 0.518503 -0.459102
0.369552 0.1530732 -0.05999999 0.1244351 0.04682043 -0.08901557 0.460948 -0.459102
0.392314 0.078036 0.06000001 0.1294761 0.03020215 0.08901556 0.518503 -0.390583
0.392314 0.078036 -0.06 0.1311782 0.02164499 -0.08901557 0.460948 -0.390583
0.3999999 -2.622683e-09 0.06 0.1328804 0.004362589 0.08901557 0.518503 -0.322064
0.3999999 2.622683e-09 -0.06 0.1328804 -0.004362589 -0.08901557 0.460948 -0.322064
0.392314 -0.078036 0.06 0.1311782 -0.02164499 0.08901557 0.518504 -0.253545
0.392314 -0.078036 -0.06000001 0.1294761 -0.03020215 -0.08901556 0.460948 -0.253545
0.369552 -0.1530732 0.05999999 0.1244351 -0.04682043 0.08901557 0.518504 -0.185026
0.369552 -0.1530732 -0.06000001 0.1210961 -0.05488139 -0.0890156 0.460948 -0.185026
0.332588 -0.222228 0.05999998 0.1129097 -0.07019706 0.08901556 0.518504 -0.116507
0.332588 -0.222228 -0.06000002 0.1080623 -0.07745165 -0.0890156 0.460948 -0.116507
0.332588 -0.222228 -0.06000002 0.1080623 -0.07745165 -0.0890156 0.460948 -0.136656
0.332588 -0.222228 0.05999998 0.1129097 -0.07019706 0.08901556 0.518504 -0.136656
0.2828428 -0.2828428 0.05999998 0.09704543 -0.09087584 0.08901557 0.518504 -0.024296
0.2828428 -0.2828428 -0.06000003 0.09087582 -0.09704543 -0.0890156 0.460948 -0.024296
0.222228 -0.332588 0.05999997 0.07745165 -0.1080624 0.08901557 0.518504 0.088063
0.222228 -0.332588 -0.06000003 0.07019705 -0.1129097 -0.08901556 0.460948 0.088063
0.1530732 -0.369552 0.06000001 0.05488139 -0.1210961 0.0890156 0.518504 0.216253
0.1530732 -0.369552 -0.06000003 0.04682041 -0.124435 -0.08901559 0.460948 0.216253
0.078036 -0.392314 0.06 0.03020216 -0.1294761 0.08901557 0.518504 0.355347
0.078036 -0.392314 -0.06000004 0.02164498 -0.1311782 -0.08901559 0.460948 0.355347
0 -0.4 0.06 0.004362616 -0.1328804 0.08901557 0.518504 0.500000
0 -0.4 -0.06000004 -0.004362549 -0.1328804 -0.08901559 0.460948 0.500000
-0.0780364 -0.392314 0.06 -0.02164514 -0.1311782 0.08901559 0.518504 0.644653
-0.0780364 -0.392314 -0.06000004 -0.03020255 -0.129476 -0.08901556 0.460948 0.644653
-0.1530736 -0.3695516 0.06000001 -0.0468208 -0.1244349 0.08901557 0.518504 0.783747
-0.1530736 -0.3695516 -0.06000003 -0.05488161 -0.121096 -0.08901556 0.460948 0.783747
-0.2222284 -0.3325876 0.05999997 -0.07019715 -0.1129097 0.08901559 0.518504 0.911937
-0.2222284 -0.3325876 -0.06000003 -0.07745186 -0.1080622 -0.08901561 0.460949 0.911937
-0.2828428 -0.2828424 0.05999998 -0.09087595 -0.09704534 0.08901555 0.518504 1.024296
-0.2828428 -0.2828424 -0.06000003 -0.09704533 -0.09087595 -0.08901557 0.460949 1.024296
-0.332588 -0.222228 0.05999998 -0.1080622 -0.07745188 0.08901559 0.518504 1.116507
-0.332588 -0.222228 -0.06000002 -0.1129097 -0.07019714 -0.0890156 0.460949 1.116508
-0.369552 -0.1530732 0.05999999 -0.1210961 -0.05488136 0.08901557 0.518504 1.185026
-0.369552 -0.1530732 -0.06000001 -0.1244351 -0.04682027 -0.08901557 0.460949 1.185026
-0.392314 -0.07803561 0.06 -0.1294762 -0.03020204 0.08901554 0.518504 1.227220
-0.392314 -0.07803559 -0.06000001 -0.1311782 -0.02164491 -0.08901557 0.460949 1.227220
-0.392314 -0.07803559 -0.06000001 -0.1311782 -0.02164491 -0.08901557 0.460948 -1.486889
-0.392314 -0.07803561 0.06 -0.1294761 -0.03020203 0.08901555 0.518502 -1.486888
-0.3999999 3.973774e-07 0.06 -0.1328804 -0.004362598 0.08901557 0.518503 -1.418369
-0.3999999 4.026227e-07 -0.06 -0.1328804 0.004362598 -0.08901557 0.460948 -1.418369
-0.392314 0.07803639 0.06000001 -0.1311782 0.02164516 0.08901557 0.518503 -1.349850
-0.392314 0.07803641 -0.06 -0.129476 0.03020257 -0.08901557 0.460948 -1.349850
-0.3695516 0.1530736 0.06000001 -0.1244349 0.04682079 0.08901557 0.518503 -1.281331
-0.3695516 0.1530736 -0.05999999 -0.121096 0.05488162 -0.08901556 0.460948 -1.281331
-0.3325876 0.2222284 0.06000002 -0.1129097 0.07019705 0.08901557 0.518503 -1.212811
-0.3325876 0.2222284 -0.05999998 -0.1080623 0.07745167 -0.08901557 0.460948 -1.212812
-0.2828424 0.2828432 0.06000003 -0.09704532 0.09087595 0.08901559 0.518503 -1.144292
-0.2828424 0.2828432 -0.05999998 -0.09087557 0.09704567 -0.08901559 0.460948 -1.144293
-0.2222276 0.332588 0.06000003 -0.07745137 0.1080626 0.08901557 0.518503 -1.075773
-0.2222276 0.332588 -0.05999997 -0.07019691 0.1129098 -0.08901557 0.460948 -1.075774
-0.1530728 0.369552 0.06000003 -0.05488161 0.121096 0.08901556 0.518503 -1.007254
-0.1530728 0.369552 -0.06000001 -0.0468208 0.1244349 -0.08901557 0.460948 -1.007255
-0.0780356 0.3923144 -0.06 -0.02470088 0.1496998 -0.050792 0.460948 -0.938736
-0.0780356 0.3923144 0.06000004 -0.03020239 0.1294761 0.08901559 0.518503 -0.938735
3 3 1 63 
3 3 63 61 
3 3 61 59 
3 3 59 57 
3 3 57 55 
3 3 55 53 
3 3 53 51 
3 3 51 49 
3 3 49 47 
3 3 47 45 
3 3 45 43 
3 3 43 41 
3 3 41 39 
3 3 39 37 
3 3 37 35 
3 3 35 33 
3 3 33 31 
3 3 31 29 
3 3 29 27 
3 3 27 25 
3 3 25 23 
3 3 23 21 
3 3 21 19 
3 3 19 17 
3 3 17 15 
3 3 15 13 
3 3 13 11 
3 3 11 9 
3 3 9 7 
3 3 7 5 
3 0 2 4 
3 0 4 6 
3 0 6 8 
3 0 8 10 
3 0 10 12 
3 0 12 14 
3 0 14 16 
3 0 16 18 
3 0 18 20 
3 0 20 22 
3 0 22 24 
3 0 24 26 
3 0 26 28 
3 0 28 30 
3 0 30 32 
3 0 32 34 
3 0 34 36 
3 0 36 38 
3 0 38 40 
3 0 40 42 
3 0 42 44 
3 0 44 46 
3 0 46 48 
3 0 48 50 
3 0 50 52 
3 0 52 54 
3 0 54 56 
3 0 56 58 
3 0 58 60 
3 0 60 62 
3 64 65 66 
3 64 66 67 
3 67 66 68 
3 67 68 69 
3 69 68 70 
3 69 70 71 
3 71 70 72 
3 71 72 73 
3 73 72 74 
3 73 74 75 
3 75 74 76 
3 75 76 77 
3 77 76 78 
3 77 78 79 
3 79 78 80 
3 79 80 81 
3 81 80 82 
3 81 82 83 
3 83 82 84 
3 83 84 85 
3 85 84 86 
3 85 86 87 
3 88 89 90 
3 88 90 91 
3 91 90 92 
3 91 92 93 
3 93 92 94 
3 93 94 95 
3 95 94 96 
3 95 96 97 
3 97 96 98 
3 97 98 99 
3 99 98 100 
3 99 100 101 
3 101 100 102 
3 101 102 103 
3 103 102 104 
3 103 104 105 
3 105 104 106 
3 105 106 107 
3 107 106 108 
3 107 108 109 
3 109 108 110 
3 109 110 111 
3 111 110 112 
3 111 112 113 
3 114 115 116 
3 114 116 117 
3 117 116 118 
3 117 118 119 
3 119 118 120 
3 119 120 121 
3 121 120 122 
3 121 122 123 
3 123 122 124 
3 123 124 125 
3 125 124 126 
3 125 126 127 
3 127 126 128 
3 127 128 129 
3 130 131 65 
3 130 65 64 
3 129 128 131 
3 129 131 130 
