ply
format ascii 1.0
comment VCGLIB generated
element vertex 36
property float x
property float y
property float z
property float nx
property float ny
property float nz
property float texture_u
property float texture_v
element face 12
property list uchar int vertex_indices
end_header
-17.55 -1.35 -0.45 -0.5773503 -0.5773503 -0.5773503 0.000977 0.999023
17.55 -1.35 -0.45 0.5773504 -0.57735 -0.5773505 0.497642 0.999023
-17.55 1.35 -0.45 -0.5773503 0.5773503 -0.5773503 0.000977 0.502358
17.55 1.35 -0.45 0.5773504 0.57735 -0.5773504 0.499023 0.500977
-17.55 -1.35 0.45 -0.5773504 -0.57735 0.5773504 0.624023 0.252358
17.55 -1.35 0.45 0.5773503 -0.5773503 0.5773503 0.250000 0.251381
-17.55 1.35 0.45 -0.5773504 0.57735 0.5773505 0.562500 0.311119
17.55 1.35 0.45 0.5773503 0.5773503 0.5773503 0.500977 0.999023
17.55 -1.35 -0.45 0.5773504 -0.57735 -0.5773505 0.499023 0.997642
-17.55 1.35 -0.45 -0.5773503 0.5773503 -0.5773503 0.002358 0.500977
-17.55 1.35 -0.45 -0.5773503 0.5773503 -0.5773503 0.624023 0.372642
-17.55 -1.35 -0.45 -0.5773503 -0.5773503 -0.5773503 0.563881 0.312500
-17.55 1.35 -0.45 -0.5773503 0.5773503 -0.5773503 0.502358 0.250977
-17.55 -1.35 0.45 -0.5773504 -0.57735 0.5773504 0.622642 0.250977
17.55 -1.35 -0.45 0.5773504 -0.57735 -0.5773505 0.000977 0.497642
-17.55 -1.35 0.45 -0.5773504 -0.57735 0.5773504 0.000977 0.002358
-17.55 -1.35 -0.45 -0.5773503 -0.5773503 -0.5773503 0.248619 0.250000
-17.55 -1.35 0.45 -0.5773504 -0.57735 0.5773504 0.497642 0.499023
17.55 -1.35 -0.45 0.5773504 -0.57735 -0.5773505 0.002358 0.499023
-17.55 1.35 0.45 -0.5773504 0.57735 0.5773505 0.500977 0.502358
17.55 -1.35 0.45 0.5773503 -0.5773503 0.5773503 0.997642 0.999023
17.55 -1.35 0.45 0.5773503 -0.5773503 0.5773503 0.999023 0.997642
-17.55 1.35 0.45 -0.5773504 0.57735 0.5773505 0.502358 0.500977
-17.55 -1.35 0.45 -0.5773504 -0.57735 0.5773504 0.999023 0.500977
17.55 1.35 -0.45 0.5773504 0.57735 -0.5773504 0.499023 0.002358
-17.55 1.35 0.45 -0.5773504 0.57735 0.5773505 0.499023 0.497642
17.55 1.35 0.45 0.5773503 0.5773503 0.5773503 0.251381 0.250000
-17.55 1.35 0.45 -0.5773504 0.57735 0.5773505 0.002358 0.000977
17.55 1.35 -0.45 0.5773504 0.57735 -0.5773504 0.497642 0.000977
-17.55 1.35 -0.45 -0.5773503 0.5773503 -0.5773503 0.250000 0.248619
17.55 -1.35 0.45 0.5773503 -0.5773503 0.5773503 0.627358 0.250977
17.55 1.35 -0.45 0.5773504 0.57735 -0.5773504 0.747642 0.250977
17.55 1.35 0.45 0.5773503 0.5773503 0.5773503 0.687500 0.311119
17.55 1.35 -0.45 0.5773504 0.57735 -0.5773504 0.625977 0.372642
17.55 -1.35 0.45 0.5773503 -0.5773503 0.5773503 0.625977 0.252358
17.55 -1.35 -0.45 0.5773504 -0.57735 -0.5773505 0.686119 0.312500
3 2 1 0 
3 8 9 3 
3 4 10 11 
3 12 13 6 
3 14 15 16 
3 17 18 5 
3 19 20 7 
3 21 22 23 
3 24 25 26 
3 27 28 29 
3 30 31 32 
3 33 34 35 
